<?xml version="1.0" ?><!-- Created with Inkscape (http://www.inkscape.org/) --><svg height="2.5in" id="svg3495" inkscape:export-filename="/home/caveman/Documents/src/python/figurefirst/examples/figure_groups_and_templates/figure_groups_and_templates.png" inkscape:export-xdpi="600" inkscape:export-ydpi="600" inkscape:version="0.91 r13725" sodipodi:docname="figure_groups_and_templates.svg" version="1.1" viewBox="0 0 675.00001 225.00001" width="7.5in" xmlns="http://www.w3.org/2000/svg" xmlns:cc="http://creativecommons.org/ns#" xmlns:dc="http://purl.org/dc/elements/1.1/" xmlns:figurefirst="http://flyranch.github.io/figurefirst/" xmlns:inkscape="http://www.inkscape.org/namespaces/inkscape" xmlns:rdf="http://www.w3.org/1999/02/22-rdf-syntax-ns#" xmlns:sodipodi="http://sodipodi.sourceforge.net/DTD/sodipodi-0.dtd" xmlns:svg="http://www.w3.org/2000/svg" xmlns:xlink="http://www.w3.org/1999/xlink">
  <sodipodi:namedview bordercolor="#666666" borderopacity="1.0" id="base" inkscape:current-layer="layer3" inkscape:cx="323.30014" inkscape:cy="199.54986" inkscape:document-units="px" inkscape:pageopacity="0.0" inkscape:pageshadow="2" inkscape:window-height="1026" inkscape:window-maximized="1" inkscape:window-width="1615" inkscape:window-x="65" inkscape:window-y="24" inkscape:zoom="1" pagecolor="#ffffff" showgrid="false" units="in"/>
  <defs id="defs3497"/>
  <metadata id="metadata3500">
    <rdf:RDF>
      <cc:Work rdf:about="">
        <dc:format>image/svg+xml</dc:format>
        <dc:type rdf:resource="http://purl.org/dc/dcmitype/StillImage"/>
        <dc:title/>
      </cc:Work>
    </rdf:RDF>
  </metadata>
  <g id="layer1" inkscape:groupmode="layer" inkscape:label="layout_design" style="display:none" transform="translate(0,-827.36215)">
    <g id="g3400" style="fill:#008000" transform="matrix(0.70397398,0,0,1,45.799262,255)">
      <rect height="56.029701" id="rect3507" style="opacity:0.15;fill:#008000;fill-opacity:1;stroke:none" width="200.2128" x="21.428572" y="634.2193">
        <figurefirst:axis figurefirst:name="ax1"/>
      </rect>
      <rect height="72.091553" id="rect3509" style="opacity:0.15;fill:#008000;fill-opacity:1;stroke:none" width="96.283539" x="21.428572" y="698.09314">
        <figurefirst:axis figurefirst:name="ax2"/>
      </rect>
      <rect height="72.091553" id="rect3509-3" style="opacity:0.15;fill:#008000;fill-opacity:1;stroke:none" width="96.283539" x="125.35783" y="698.09314">
        <figurefirst:axis figurefirst:name="ax3"/>
      </rect>
      <figurefirst:figure figurefirst:name="group1"/>
    </g>
    <rect height="135.875" id="rect4433" style="opacity:0.15;fill:#0000ff;fill-opacity:1;stroke:none" width="141.49876" x="276.58215" y="889.22955">
      <figurefirst:figure figurefirst:name="group2" figurefirst:template="group1"/>
    </rect>
    <rect height="135.875" id="rect4433-7" style="opacity:0.15;fill:#ffcc00;fill-opacity:1;stroke:none" width="141.49876" x="497.00122" y="889.22955">
      <figurefirst:figure figurefirst:name="group3" figurefirst:template="group1"/>
    </rect>
    <text id="text5401" sodipodi:linespacing="125%" style="font-style:normal;font-weight:normal;font-size:40px;line-height:125%;font-family:sans-serif;letter-spacing:0px;word-spacing:0px;fill:#000000;fill-opacity:1;stroke:none;stroke-width:1px;stroke-linecap:butt;stroke-linejoin:miter;stroke-opacity:1" x="123.51979" xml:space="preserve" y="921.89929"><tspan id="tspan5403" sodipodi:role="line" style="font-size:10px" x="123.51979" y="921.89929">ax 1</tspan></text>
    <text id="text5401-3" sodipodi:linespacing="125%" style="font-style:normal;font-weight:normal;font-size:40px;line-height:125%;font-family:sans-serif;letter-spacing:0px;word-spacing:0px;fill:#000000;fill-opacity:1;stroke:none;stroke-width:1px;stroke-linecap:butt;stroke-linejoin:miter;stroke-opacity:1" x="85.382576" xml:space="preserve" y="993.47351"><tspan id="tspan5403-5" sodipodi:role="line" style="font-size:10px" x="85.382576" y="993.47351">ax 2</tspan></text>
    <text id="text5401-6" sodipodi:linespacing="125%" style="font-style:normal;font-weight:normal;font-size:40px;line-height:125%;font-family:sans-serif;letter-spacing:0px;word-spacing:0px;fill:#000000;fill-opacity:1;stroke:none;stroke-width:1px;stroke-linecap:butt;stroke-linejoin:miter;stroke-opacity:1" x="160.13258" xml:space="preserve" y="993.97351"><tspan id="tspan5403-2" sodipodi:role="line" style="font-size:10px" x="160.13258" y="993.97351">ax 3</tspan></text>
  </g>
  <g id="layer3" inkscape:groupmode="layer" inkscape:label="labels">
    <text id="text5361" sodipodi:linespacing="125%" style="font-style:normal;font-variant:normal;font-weight:normal;font-stretch:normal;font-size:15.00000095px;line-height:125%;font-family:'Abyssinica SIL';-inkscape-font-specification:'Abyssinica SIL, Normal';text-align:start;letter-spacing:0px;word-spacing:0px;writing-mode:lr-tb;text-anchor:start;fill:#000000;fill-opacity:1;stroke:none;stroke-width:1px;stroke-linecap:butt;stroke-linejoin:miter;stroke-opacity:1" x="7.3663483" xml:space="preserve" y="27.769299"><tspan id="tspan5363" sodipodi:role="line" style="font-style:normal;font-variant:normal;font-weight:normal;font-stretch:normal;font-size:15.00000095px;line-height:125%;font-family:'Abyssinica SIL';-inkscape-font-specification:'Abyssinica SIL, Normal';text-align:start;writing-mode:lr-tb;text-anchor:start" x="7.3663483" y="27.769299">Group 1</tspan></text>
    <text id="text5361-3" sodipodi:linespacing="125%" style="font-style:normal;font-variant:normal;font-weight:normal;font-stretch:normal;font-size:15.00000095px;line-height:125%;font-family:'Abyssinica SIL';-inkscape-font-specification:'Abyssinica SIL, Normal';text-align:start;letter-spacing:0px;word-spacing:0px;writing-mode:lr-tb;text-anchor:start;fill:#000000;fill-opacity:1;stroke:none;stroke-width:1px;stroke-linecap:butt;stroke-linejoin:miter;stroke-opacity:1" x="221.36487" xml:space="preserve" y="27.769299"><tspan id="tspan5363-6" sodipodi:role="line" style="font-style:normal;font-variant:normal;font-weight:normal;font-stretch:normal;font-size:15.00000095px;line-height:125%;font-family:'Abyssinica SIL';-inkscape-font-specification:'Abyssinica SIL, Normal';text-align:start;writing-mode:lr-tb;text-anchor:start" x="221.36487" y="27.769299">Group 2</tspan></text>
    <text id="text5361-3-7" sodipodi:linespacing="125%" style="font-style:normal;font-variant:normal;font-weight:normal;font-stretch:normal;font-size:15.00000095px;line-height:125%;font-family:'Abyssinica SIL';-inkscape-font-specification:'Abyssinica SIL, Normal';text-align:start;letter-spacing:0px;word-spacing:0px;writing-mode:lr-tb;text-anchor:start;fill:#000000;fill-opacity:1;stroke:none;stroke-width:1px;stroke-linecap:butt;stroke-linejoin:miter;stroke-opacity:1" x="441.78394" xml:space="preserve" y="27.769299"><tspan id="tspan5363-6-5" sodipodi:role="line" style="font-style:normal;font-variant:normal;font-weight:normal;font-stretch:normal;font-size:15.00000095px;line-height:125%;font-family:'Abyssinica SIL';-inkscape-font-specification:'Abyssinica SIL, Normal';text-align:start;writing-mode:lr-tb;text-anchor:start" x="441.78394" y="27.769299">Group 3</tspan></text>
  </g>
<g figurefirst:date-modified="May 11 2017 09:45:38 PST" figurefirst:notes="random data about green fish" figurefirst:traceback="['  File &quot;./make_figure_example.py&quot;, line 64, in &lt;module&gt;\n    make_plot(template_filename, output_filename)\n', '  File &quot;./make_figure_example.py&quot;, line 54, in make_plot\n    notes=notes[group])  # save notes about the data into the svg\n', '  File &quot;/usr/local/lib/python2.7/dist-packages/figurefirst/svg_to_axes.py&quot;, line 947, in append_figure_to_layer\n    tb = traceback.extract_stack()\n']" id="group1" inkscape:groupmode="layer" inkscape:label="group1" style="display:inline;stroke-linecap:butt;stroke-linejoin:round" transform="scale(1.25000001852,1.25000001852)"><figurefirst:targetlayer figurefirst:name="group1"/>
 <defs>
  <style type="text/css">
*{stroke-linecap:butt;stroke-linejoin:round;stroke-miterlimit:100000;}
  </style>
 </defs>
 <g id="figure_1">
  <g id="patch_1">
   <path d="M 0 180  L 540 180  L 540 0  L 0 0  L 0 180  z " style="fill:none;"/>
  </g>
  <g id="axes_1">
   <g id="patch_2">
    <path d="M 48.707535 158.258027  L 102.932419 158.258027  L 102.932419 100.584788  L 48.707535 100.584788  L 48.707535 158.258027  z " style="fill:none;"/>
   </g>
   <g id="line2d_1">
    <path clip-path="url(#p0ec9574468)" d="M 53.226275 105.390891  L 53.678149 105.510943  L 54.130023 105.869901  L 54.581897 106.464178  L 55.033771 107.287836  L 55.485645 108.332645  L 55.937519 109.588166  L 56.389393 111.041855  L 56.841267 112.679185  L 57.293141 114.483799  L 57.745015 116.437664  L 58.196889 118.521258  L 58.648763 120.713763  L 59.100637 122.993272  L 59.552511 125.337009  L 60.004385 127.721556  L 60.456259 130.123087  L 60.908133 132.517607  L 61.360008 134.881191  L 61.811882 137.190223  L 62.263756 139.421631  L 62.71563 141.55312  L 63.167504 143.563393  L 63.619378 145.432364  L 64.071252 147.141359  L 64.523126 148.673302  L 64.975 150.012887  L 65.426874 151.146728  L 65.878748 152.063497  L 66.330622 152.754034  L 66.782496 153.211439  L 67.23437 153.431141  L 67.686244 153.410947  L 68.138118 153.151056  L 68.589992 152.654067  L 69.041866 151.924945  L 69.49374 150.970975  L 69.945614 149.801689  L 70.397488 148.42877  L 70.849362 146.865936  L 71.301236 145.128801  L 71.75311 143.234724  L 72.204984 141.202628  L 72.656858 139.052819  L 73.108732 136.806775  L 73.560606 134.486939  L 74.01248 132.116491  L 74.464355 129.719113  L 74.916229 127.318762  L 75.368103 124.939419  L 75.819977 122.604859  L 76.271851 120.338407  L 76.723725 118.16271  L 77.175599 116.099506  L 77.627473 114.16941  L 78.079347 112.391707  L 78.531221 110.784159  L 78.983095 109.362828  L 79.434969 108.141916  L 79.886843 107.133622  L 80.338717 106.348019  L 80.790591 105.792959  L 81.242465 105.473986  L 81.694339 105.394288  L 82.146213 105.554661  L 82.598087 105.953502  L 83.049961 106.586827  L 83.501835 107.448308  L 83.953709 108.529337  L 84.405583 109.819112  L 84.857457 111.304747  L 85.309331 112.971397  L 85.761205 114.802411  L 86.213079 116.779493  L 86.664953 118.882889  L 87.116827 121.091582  L 87.568702 123.383504  L 88.020576 125.735754  L 88.47245 128.124831  L 88.924324 130.526862  L 89.376198 132.917848  L 89.828072 135.273899  L 90.279946 137.571474  L 90.73182 139.787616  L 91.183694 141.900182  L 91.635568 143.888064  L 92.087442 145.731401  L 92.539316 147.411773  L 92.99119 148.912392  L 93.443064 150.218263  L 93.894938 151.316338  L 94.346812 152.195647  L 94.798686 152.847403  L 95.25056 153.265095  L 95.702434 153.444548  L 96.154308 153.383969  L 96.606182 153.083965  L 97.058056 152.547533  L 97.50993 151.780031  L 97.961804 150.78913  " style="fill:none;stroke:#008000;stroke-linecap:square;"/>
   </g>
   <g id="patch_3">
    <path d="M 53.226275 100.584788  L 98.413678 100.584788  " style="fill:none;"/>
   </g>
   <g id="patch_4">
    <path d="M 102.932419 153.451924  L 102.932419 105.390891  " style="fill:none;"/>
   </g>
   <g id="patch_5">
    <path d="M 53.226275 168.258027  L 98.413678 168.258027  " style="fill:none;stroke:#000000;stroke-linecap:square;stroke-linejoin:miter;"/>
   </g>
   <g id="patch_6">
    <path d="M 38.707535 153.451924  L 38.707535 105.390891  " style="fill:none;stroke:#000000;stroke-linecap:square;stroke-linejoin:miter;"/>
   </g>
   <g id="matplotlib.axis_1">
    <g id="xtick_1">
     <g id="line2d_2">
      <defs>
       <path d="M 0 0  L 0 -4  " id="m6daa80fc12" style="stroke:#000000;"/>
      </defs>
      <g>
       <use style="stroke:#000000;" x="53.2262749153" xlink:href="#m6daa80fc12" y="168.258027366"/>
      </g>
     </g>
     <g id="text_1">
      <!-- 0 -->
      <defs>
       <path d="M 31.78125 66.40625  Q 24.171875 66.40625 20.328125 58.90625  Q 16.5 51.421875 16.5 36.375  Q 16.5 21.390625 20.328125 13.890625  Q 24.171875 6.390625 31.78125 6.390625  Q 39.453125 6.390625 43.28125 13.890625  Q 47.125 21.390625 47.125 36.375  Q 47.125 51.421875 43.28125 58.90625  Q 39.453125 66.40625 31.78125 66.40625  M 31.78125 74.21875  Q 44.046875 74.21875 50.515625 64.515625  Q 56.984375 54.828125 56.984375 36.375  Q 56.984375 17.96875 50.515625 8.265625  Q 44.046875 -1.421875 31.78125 -1.421875  Q 19.53125 -1.421875 13.0625 8.265625  Q 6.59375 17.96875 6.59375 36.375  Q 6.59375 54.828125 13.0625 64.515625  Q 19.53125 74.21875 31.78125 74.21875  " id="BitstreamVeraSans-Roman-30"/>
      </defs>
      <g transform="translate(50.6812749153 178.336777366)scale(0.08 -0.08)">
       <use xlink:href="#BitstreamVeraSans-Roman-30"/>
      </g>
     </g>
    </g>
    <g id="xtick_2">
     <g id="line2d_3">
      <g>
       <use style="stroke:#000000;" x="75.8199766333" xlink:href="#m6daa80fc12" y="168.258027366"/>
      </g>
     </g>
     <g id="text_2">
      <!-- 5 -->
      <defs>
       <path d="M 10.796875 72.90625  L 49.515625 72.90625  L 49.515625 64.59375  L 19.828125 64.59375  L 19.828125 46.734375  Q 21.96875 47.46875 24.109375 47.828125  Q 26.265625 48.1875 28.421875 48.1875  Q 40.625 48.1875 47.75 41.5  Q 54.890625 34.8125 54.890625 23.390625  Q 54.890625 11.625 47.5625 5.09375  Q 40.234375 -1.421875 26.90625 -1.421875  Q 22.3125 -1.421875 17.546875 -0.640625  Q 12.796875 0.140625 7.71875 1.703125  L 7.71875 11.625  Q 12.109375 9.234375 16.796875 8.0625  Q 21.484375 6.890625 26.703125 6.890625  Q 35.15625 6.890625 40.078125 11.328125  Q 45.015625 15.765625 45.015625 23.390625  Q 45.015625 31 40.078125 35.4375  Q 35.15625 39.890625 26.703125 39.890625  Q 22.75 39.890625 18.8125 39.015625  Q 14.890625 38.140625 10.796875 36.28125  z " id="BitstreamVeraSans-Roman-35"/>
      </defs>
      <g transform="translate(73.2749766333 178.336777366)scale(0.08 -0.08)">
       <use xlink:href="#BitstreamVeraSans-Roman-35"/>
      </g>
     </g>
    </g>
    <g id="xtick_3">
     <g id="line2d_4">
      <g>
       <use style="stroke:#000000;" x="98.4136783514" xlink:href="#m6daa80fc12" y="168.258027366"/>
      </g>
     </g>
     <g id="text_3">
      <!-- 10 -->
      <defs>
       <path d="M 12.40625 8.296875  L 28.515625 8.296875  L 28.515625 63.921875  L 10.984375 60.40625  L 10.984375 69.390625  L 28.421875 72.90625  L 38.28125 72.90625  L 38.28125 8.296875  L 54.390625 8.296875  L 54.390625 0  L 12.40625 0  z " id="BitstreamVeraSans-Roman-31"/>
      </defs>
      <g transform="translate(93.3236783514 178.336777366)scale(0.08 -0.08)">
       <use xlink:href="#BitstreamVeraSans-Roman-31"/>
       <use x="63.623046875" xlink:href="#BitstreamVeraSans-Roman-30"/>
      </g>
     </g>
    </g>
   </g>
   <g id="matplotlib.axis_2">
    <g id="ytick_1">
     <g id="line2d_5">
      <defs>
       <path d="M 0 0  L 4 0  " id="md14e6bacd4" style="stroke:#000000;"/>
      </defs>
      <g>
       <use style="stroke:#000000;" x="38.7075345717" xlink:href="#md14e6bacd4" y="153.451924047"/>
      </g>
     </g>
     <g id="text_4">
      <!-- &#8722;1 -->
      <defs>
       <path d="M 10.59375 35.5  L 73.1875 35.5  L 73.1875 27.203125  L 10.59375 27.203125  z " id="BitstreamVeraSans-Roman-2212"/>
      </defs>
      <g transform="translate(22.9137845717 155.659424047)scale(0.08 -0.08)">
       <use xlink:href="#BitstreamVeraSans-Roman-2212"/>
       <use x="83.7890625" xlink:href="#BitstreamVeraSans-Roman-31"/>
      </g>
     </g>
    </g>
    <g id="ytick_2">
     <g id="line2d_6">
      <g>
       <use style="stroke:#000000;" x="38.7075345717" xlink:href="#md14e6bacd4" y="129.421407448"/>
      </g>
     </g>
     <g id="text_5">
      <!-- 0 -->
      <g transform="translate(29.6175345717 131.628907448)scale(0.08 -0.08)">
       <use xlink:href="#BitstreamVeraSans-Roman-30"/>
      </g>
     </g>
    </g>
    <g id="ytick_3">
     <g id="line2d_7">
      <g>
       <use style="stroke:#000000;" x="38.7075345717" xlink:href="#md14e6bacd4" y="105.390890849"/>
      </g>
     </g>
     <g id="text_6">
      <!-- 1 -->
      <g transform="translate(29.6175345717 107.598390849)scale(0.08 -0.08)">
       <use xlink:href="#BitstreamVeraSans-Roman-31"/>
      </g>
     </g>
    </g>
   </g>
  </g>
  <g id="axes_2">
   <g id="patch_7">
    <path d="M 48.707535 94.309477  L 161.463214 94.309477  L 161.463214 49.485718  L 48.707535 49.485718  L 48.707535 94.309477  z " style="fill:none;"/>
   </g>
   <g id="line2d_8">
    <path clip-path="url(#p7411060828)" d="M 58.103841 71.897597  L 59.043472 70.033052  L 59.983103 68.187136  L 60.922733 66.378295  L 61.862364 64.6246  L 62.801995 62.943574  L 63.741625 61.352015  L 64.681256 59.865823  L 65.620887 58.499849  L 66.560517 57.26774  L 67.500148 56.181809  L 68.439779 55.252904  L 69.379409 54.490308  L 70.31904 53.901639  L 71.258671 53.49278  L 72.198301 53.267816  L 73.137932 53.228995  L 74.077562 53.376704  L 75.017193 53.709467  L 75.956824 54.223961  L 76.896454 54.915044  L 77.836085 55.77581  L 78.775716 56.797661  L 79.715346 57.970384  L 80.654977 59.282264  L 81.594608 60.720193  L 82.534238 62.269802  L 83.473869 63.915609  L 84.4135 65.641169  L 85.35313 67.429241  L 86.292761 69.26196  L 87.232392 71.121013  L 88.172022 72.987826  L 89.111653 74.843745  L 90.051284 76.670228  L 90.990914 78.449023  L 91.930545 80.16236  L 92.870176 81.793117  L 93.809806 83.325002  L 94.749437 84.742707  L 95.689068 86.032069  L 96.628698 87.180204  L 97.568329 88.17564  L 98.50796 89.008431  L 99.44759 89.670256  L 100.387221 90.154503  L 101.326852 90.456333  L 102.266482 90.57273  L 103.206113 90.502531  L 104.145744 90.246438  L 105.085374 89.80701  L 106.025005 89.188636  L 106.964636 88.397497  L 107.904266 87.441495  L 108.843897 86.330184  L 109.783528 85.074668  L 110.723158 83.68749  L 111.662789 82.182512  L 112.60242 80.574771  L 113.54205 78.880329  L 114.481681 77.116119  L 115.421312 75.299767  L 116.360942 73.449422  L 117.300573 71.583571  L 118.240204 69.720858  L 119.179834 67.879895  L 120.119465 66.079074  L 121.059096 64.336391  L 121.998726 62.669257  L 122.938357 61.094329  L 123.877988 59.627344  L 124.817618 58.282959  L 125.757249 57.074607  L 126.69688 56.014361  L 127.63651 55.112816  L 128.576141 54.378979  L 129.515772 53.820181  L 130.455402 53.442008  L 131.395033 53.248236  L 132.334664 53.240803  L 133.274294 53.419782  L 134.213925 53.783386  L 135.153556 54.327981  L 136.093186 55.048125  L 137.032817 55.936624  L 137.972448 56.9846  L 138.912078 58.181581  L 139.851709 59.515609  L 140.79134 60.973353  L 141.73097 62.540248  L 142.670601 64.200639  L 143.610232 65.937936  L 144.549862 67.734779  L 145.489493 69.573216  L 146.429124 71.434877  L 147.368754 73.301162  L 148.308385 75.153423  L 149.248016 76.973153  L 150.187646 78.742169  L 151.127277 80.442797  " style="fill:none;stroke:#008000;stroke-linecap:square;"/>
   </g>
   <g id="patch_8">
    <path d="M 58.103841 39.485718  L 152.066908 39.485718  " style="fill:none;stroke:#000000;stroke-linecap:square;stroke-linejoin:miter;"/>
   </g>
   <g id="patch_9">
    <path d="M 161.463214 90.574163  L 161.463214 53.221031  " style="fill:none;"/>
   </g>
   <g id="patch_10">
    <path d="M 58.103841 94.309477  L 152.066908 94.309477  " style="fill:none;"/>
   </g>
   <g id="patch_11">
    <path d="M 38.707535 90.574163  L 38.707535 53.221031  " style="fill:none;stroke:#000000;stroke-linecap:square;stroke-linejoin:miter;"/>
   </g>
   <g id="matplotlib.axis_3">
    <g id="xtick_4">
     <g id="line2d_9">
      <defs>
       <path d="M 0 0  L 0 4  " id="m2f8facd6a8" style="stroke:#000000;"/>
      </defs>
      <g>
       <use style="stroke:#000000;" x="58.10384121" xlink:href="#m2f8facd6a8" y="39.4857178006"/>
      </g>
     </g>
     <g id="text_7">
      <!-- 0 -->
      <g transform="translate(55.55884121 33.8219678006)scale(0.08 -0.08)">
       <use xlink:href="#BitstreamVeraSans-Roman-30"/>
      </g>
     </g>
    </g>
    <g id="xtick_5">
     <g id="line2d_10">
      <g>
       <use style="stroke:#000000;" x="105.085374402" xlink:href="#m2f8facd6a8" y="39.4857178006"/>
      </g>
     </g>
     <g id="text_8">
      <!-- 5 -->
      <g transform="translate(102.540374402 33.8219678006)scale(0.08 -0.08)">
       <use xlink:href="#BitstreamVeraSans-Roman-35"/>
      </g>
     </g>
    </g>
    <g id="xtick_6">
     <g id="line2d_11">
      <g>
       <use style="stroke:#000000;" x="152.066907593" xlink:href="#m2f8facd6a8" y="39.4857178006"/>
      </g>
     </g>
     <g id="text_9">
      <!-- 10 -->
      <g transform="translate(146.976907593 33.8219678006)scale(0.08 -0.08)">
       <use xlink:href="#BitstreamVeraSans-Roman-31"/>
       <use x="63.623046875" xlink:href="#BitstreamVeraSans-Roman-30"/>
      </g>
     </g>
    </g>
   </g>
   <g id="matplotlib.axis_4">
    <g id="ytick_4">
     <g id="line2d_12">
      <g>
       <use style="stroke:#000000;" x="38.7075345717" xlink:href="#md14e6bacd4" y="90.5741633745"/>
      </g>
     </g>
     <g id="text_10">
      <!-- &#8722;1 -->
      <g transform="translate(22.9137845717 92.7816633745)scale(0.08 -0.08)">
       <use xlink:href="#BitstreamVeraSans-Roman-2212"/>
       <use x="83.7890625" xlink:href="#BitstreamVeraSans-Roman-31"/>
      </g>
     </g>
    </g>
    <g id="ytick_5">
     <g id="line2d_13">
      <g>
       <use style="stroke:#000000;" x="38.7075345717" xlink:href="#md14e6bacd4" y="71.8975972046"/>
      </g>
     </g>
     <g id="text_11">
      <!-- 0 -->
      <g transform="translate(29.6175345717 74.1050972046)scale(0.08 -0.08)">
       <use xlink:href="#BitstreamVeraSans-Roman-30"/>
      </g>
     </g>
    </g>
    <g id="ytick_6">
     <g id="line2d_14">
      <g>
       <use style="stroke:#000000;" x="38.7075345717" xlink:href="#md14e6bacd4" y="53.2210310346"/>
      </g>
     </g>
     <g id="text_12">
      <!-- 1 -->
      <g transform="translate(29.6175345717 55.4285310346)scale(0.08 -0.08)">
       <use xlink:href="#BitstreamVeraSans-Roman-31"/>
      </g>
     </g>
    </g>
   </g>
  </g>
  <g id="axes_3">
   <g id="patch_12">
    <path d="M 107.238328 158.258027  L 161.463213 158.258027  L 161.463213 100.584788  L 107.238328 100.584788  L 107.238328 158.258027  z " style="fill:none;"/>
   </g>
   <g id="line2d_15">
    <path clip-path="url(#pc0163c690e)" d="M 111.757069 129.421407  L 112.208943 127.010313  L 112.660817 124.550181  L 113.112691 121.987898  L 113.564565 119.261468  L 114.016439 116.293476  L 114.468313 112.981247  L 114.920187 109.180783  L 115.372061 104.678661  L 115.823935 99.139154  L 116.275809 91.996095  L 116.727683 82.207218  L 117.179557 67.611275  L 117.631431 42.861025  L 118.007047 -1  M 118.616273 -1  L 118.68708 181  M 120.831313 181  L 121.246423 170.509903  L 121.698298 162.435085  L 122.150172 156.316689  L 122.602046 151.433704  L 123.05392 147.372739  L 123.505794 143.878085  L 123.957668 140.781297  L 124.409542 137.964973  L 124.861416 135.342656  L 125.31329 132.846875  L 125.765164 130.421477  L 126.217038 128.016251  L 126.668912 125.582635  L 127.120786 123.069736  L 127.57266 120.419921  L 128.024534 117.563147  L 128.476408 114.408749  L 128.928282 110.832455  L 129.380156 106.654304  L 129.83203 101.598364  L 130.283904 95.213331  L 130.735778 86.700441  L 131.187652 74.491302  L 131.639526 55.015147  L 132.0914 17.983923  L 132.175935 -1  M 133.364534 -1  L 133.401694 181  M 135.045524 181  L 135.254519 174.734356  L 135.706393 165.497783  L 136.158267 158.679542  L 136.610141 153.345807  L 137.062015 148.980885  L 137.513889 145.275074  L 137.965763 142.029408  L 138.417637 139.108371  L 138.869511 136.414437  L 139.321385 133.873355  L 139.773259 131.425017  L 140.225133 129.017304  L 140.677007 126.601452  L 141.128881 124.128033  L 141.580755 121.54281  L 142.032629 118.781718  L 142.484503 115.763904  L 142.936377 112.3811  L 143.388251 108.480062  L 143.840125 103.831475  L 144.291999 98.070692  L 144.743873 90.574601  L 145.195747 80.17605  L 145.647621 64.394496  L 146.099495 36.849473  L 146.37423 -1  M 147.150185 -1  L 147.235272 181  M 149.226191 181  L 149.262614 179.67829  L 149.714488 168.968686  L 150.166362 161.294627  L 150.618236 155.423206  L 151.07011 150.701798  L 151.521984 146.750939  L 151.973858 143.33324  L 152.425732 140.290786  L 152.877606 137.512495  L 153.32948 134.915786  L 153.781354 132.435545  L 154.233228 130.016957  L 154.685102 127.610366  L 155.136976 125.167102  L 155.58885 122.63547  L 156.040724 119.956194  L 156.492598 117.056435  " style="fill:none;stroke:#008000;stroke-linecap:square;"/>
   </g>
   <g id="patch_13">
    <path d="M 111.757069 100.584788  L 156.944472 100.584788  " style="fill:none;"/>
   </g>
   <g id="patch_14">
    <path d="M 171.463213 153.451924  L 171.463213 105.390891  " style="fill:none;stroke:#000000;stroke-linecap:square;stroke-linejoin:miter;"/>
   </g>
   <g id="patch_15">
    <path d="M 111.757069 168.258027  L 156.944472 168.258027  " style="fill:none;stroke:#000000;stroke-linecap:square;stroke-linejoin:miter;"/>
   </g>
   <g id="patch_16">
    <path d="M 107.238328 153.451924  L 107.238328 105.390891  " style="fill:none;"/>
   </g>
   <g id="matplotlib.axis_5">
    <g id="xtick_7">
     <g id="line2d_16">
      <g>
       <use style="stroke:#000000;" x="111.757068762" xlink:href="#m6daa80fc12" y="168.258027366"/>
      </g>
     </g>
     <g id="text_13">
      <!-- 0 -->
      <g transform="translate(109.212068762 178.336777366)scale(0.08 -0.08)">
       <use xlink:href="#BitstreamVeraSans-Roman-30"/>
      </g>
     </g>
    </g>
    <g id="xtick_8">
     <g id="line2d_17">
      <g>
       <use style="stroke:#000000;" x="134.35077048" xlink:href="#m6daa80fc12" y="168.258027366"/>
      </g>
     </g>
     <g id="text_14">
      <!-- 5 -->
      <g transform="translate(131.80577048 178.336777366)scale(0.08 -0.08)">
       <use xlink:href="#BitstreamVeraSans-Roman-35"/>
      </g>
     </g>
    </g>
    <g id="xtick_9">
     <g id="line2d_18">
      <g>
       <use style="stroke:#000000;" x="156.944472198" xlink:href="#m6daa80fc12" y="168.258027366"/>
      </g>
     </g>
     <g id="text_15">
      <!-- 10 -->
      <g transform="translate(151.854472198 178.336777366)scale(0.08 -0.08)">
       <use xlink:href="#BitstreamVeraSans-Roman-31"/>
       <use x="63.623046875" xlink:href="#BitstreamVeraSans-Roman-30"/>
      </g>
     </g>
    </g>
   </g>
   <g id="matplotlib.axis_6">
    <g id="ytick_7">
     <g id="line2d_19">
      <defs>
       <path d="M 0 0  L -4 0  " id="m671b02e650" style="stroke:#000000;"/>
      </defs>
      <g>
       <use style="stroke:#000000;" x="171.463212542" xlink:href="#m671b02e650" y="153.451924047"/>
      </g>
     </g>
     <g id="text_16">
      <!-- &#8722;1 -->
      <g transform="translate(175.463212542 155.659424047)scale(0.08 -0.08)">
       <use xlink:href="#BitstreamVeraSans-Roman-2212"/>
       <use x="83.7890625" xlink:href="#BitstreamVeraSans-Roman-31"/>
      </g>
     </g>
    </g>
    <g id="ytick_8">
     <g id="line2d_20">
      <g>
       <use style="stroke:#000000;" x="171.463212542" xlink:href="#m671b02e650" y="129.421407448"/>
      </g>
     </g>
     <g id="text_17">
      <!-- 0 -->
      <g transform="translate(175.463212542 131.628907448)scale(0.08 -0.08)">
       <use xlink:href="#BitstreamVeraSans-Roman-30"/>
      </g>
     </g>
    </g>
    <g id="ytick_9">
     <g id="line2d_21">
      <g>
       <use style="stroke:#000000;" x="171.463212542" xlink:href="#m671b02e650" y="105.390890849"/>
      </g>
     </g>
     <g id="text_18">
      <!-- 1 -->
      <g transform="translate(175.463212542 107.598390849)scale(0.08 -0.08)">
       <use xlink:href="#BitstreamVeraSans-Roman-31"/>
      </g>
     </g>
    </g>
   </g>
  </g>
 </g>
 <defs>
  <clipPath id="p0ec9574468">
   <rect height="57.6732398367" width="54.2248841233" x="48.7075345717" y="100.58478753"/>
  </clipPath>
  <clipPath id="pc0163c690e">
   <rect height="57.6732398367" width="54.2248841233" x="107.238328419" y="100.58478753"/>
  </clipPath>
  <clipPath id="p7411060828">
   <rect height="44.8237588078" width="112.75567966" x="48.7075345717" y="49.4857178006"/>
  </clipPath>
 </defs>
</g><g figurefirst:date-modified="May 11 2017 09:45:39 PST" figurefirst:notes="random data about blue squirrels" figurefirst:traceback="['  File &quot;./make_figure_example.py&quot;, line 64, in &lt;module&gt;\n    make_plot(template_filename, output_filename)\n', '  File &quot;./make_figure_example.py&quot;, line 54, in make_plot\n    notes=notes[group])  # save notes about the data into the svg\n', '  File &quot;/usr/local/lib/python2.7/dist-packages/figurefirst/svg_to_axes.py&quot;, line 947, in append_figure_to_layer\n    tb = traceback.extract_stack()\n']" id="group2" inkscape:groupmode="layer" inkscape:label="group2" style="display:inline;stroke-linecap:butt;stroke-linejoin:round" transform="scale(1.25000001852,1.25000001852)"><figurefirst:targetlayer figurefirst:name="group2"/>
 <defs>
  <style type="text/css">
*{stroke-linecap:butt;stroke-linejoin:round;stroke-miterlimit:100000;}
  </style>
 </defs>
 <g id="figure_1">
  <g id="patch_1">
   <path d="M 0 180  L 540 180  L 540 0  L 0 0  L 0 180  z " style="fill:none;"/>
  </g>
  <g id="axes_1">
   <g id="patch_2">
    <path d="M 221.265717 158.193913  L 275.703799 158.193913  L 275.703799 100.559016  L 221.265717 100.559016  L 221.265717 158.193913  z " style="fill:none;"/>
   </g>
   <g id="line2d_1">
    <path clip-path="url(#pfc3e88e76a)" d="M 225.802224 105.361924  L 226.255874 105.481896  L 226.709525 105.840616  L 227.163176 106.434497  L 227.616826 107.257608  L 228.070477 108.301722  L 228.524128 109.556409  L 228.977778 111.009131  L 229.431429 112.645373  L 229.88508 114.448787  L 230.33873 116.401353  L 230.792381 118.483562  L 231.246032 120.674609  L 231.699683 122.952603  L 232.153333 125.294781  L 232.606984 127.677743  L 233.060635 130.077677  L 233.514285 132.470606  L 233.967936 134.832618  L 234.421587 137.140115  L 234.875237 139.370039  L 235.328888 141.500112  L 235.782539 143.509048  L 236.236189 145.376777  L 236.68984 147.084636  L 237.143491 148.61556  L 237.597141 149.954254  L 238.050792 151.087341  L 238.504443 152.003501  L 238.958094 152.693579  L 239.411744 153.150679  L 239.865395 153.370236  L 240.319046 153.350055  L 240.772696 153.090337  L 241.226347 152.593679  L 241.679998 151.865041  L 242.133648 150.911706  L 242.587299 149.743197  L 243.04095 148.371191  L 243.4946 146.809395  L 243.948251 145.073416  L 244.401902 143.180597  L 244.855553 141.149853  L 245.309203 139.001472  L 245.762854 136.756922  L 246.216505 134.438629  L 246.670155 132.069756  L 247.123806 129.673972  L 247.577457 127.275216  L 248.031107 124.897455  L 248.484758 122.564447  L 248.938409 120.299502  L 249.392059 118.125252  L 249.84571 116.063419  L 250.299361 114.134607  L 250.753011 112.358085  L 251.206662 110.751606  L 251.660313 109.33122  L 252.113964 108.11112  L 252.567614 107.103496  L 253.021265 106.318416  L 253.474916 105.763725  L 253.928566 105.444964  L 254.382217 105.365319  L 254.835868 105.525585  L 255.289518 105.924161  L 255.743169 106.557065  L 256.19682 107.417973  L 256.65047 108.498283  L 257.104121 109.787201  L 257.557772 111.271848  L 258.011422 112.937391  L 258.465073 114.767187  L 258.918724 116.742954  L 259.372375 118.844952  L 259.826025 121.052176  L 260.279676 123.342575  L 260.733327 125.693261  L 261.186977 128.08075  L 261.640628 130.481184  L 262.094279 132.870581  L 262.547929 135.225065  L 263.00158 137.521112  L 263.455231 139.735781  L 263.908881 141.846943  L 264.362532 143.833504  L 264.816183 145.675614  L 265.269833 147.35487  L 265.723484 148.85449  L 266.177135 150.159493  L 266.630786 151.256839  L 267.084436 152.135563  L 267.538087 152.786886  L 267.991738 153.2043  L 268.445388 153.383633  L 268.899039 153.323095  L 269.35269 153.023291  L 269.80634 152.487215  L 270.259991 151.720224  L 270.713642 150.729981  " style="fill:none;stroke:#0000ff;stroke-linecap:square;"/>
   </g>
   <g id="patch_3">
    <path d="M 225.802224 100.559016  L 271.167292 100.559016  " style="fill:none;"/>
   </g>
   <g id="patch_4">
    <path d="M 275.703799 153.391005  L 275.703799 105.361924  " style="fill:none;"/>
   </g>
   <g id="patch_5">
    <path d="M 225.802224 168.193913  L 271.167292 168.193913  " style="fill:none;stroke:#000000;stroke-linecap:square;stroke-linejoin:miter;"/>
   </g>
   <g id="patch_6">
    <path d="M 211.265717 153.391005  L 211.265717 105.361924  " style="fill:none;stroke:#000000;stroke-linecap:square;stroke-linejoin:miter;"/>
   </g>
   <g id="matplotlib.axis_1">
    <g id="xtick_1">
     <g id="line2d_2">
      <defs>
       <path d="M 0 0  L 0 -4  " id="m184bbdd2ea" style="stroke:#000000;"/>
      </defs>
      <g>
       <use style="stroke:#000000;" x="225.802223604" xlink:href="#m184bbdd2ea" y="168.193912969"/>
      </g>
     </g>
     <g id="text_1">
      <!-- 0 -->
      <defs>
       <path d="M 31.78125 66.40625  Q 24.171875 66.40625 20.328125 58.90625  Q 16.5 51.421875 16.5 36.375  Q 16.5 21.390625 20.328125 13.890625  Q 24.171875 6.390625 31.78125 6.390625  Q 39.453125 6.390625 43.28125 13.890625  Q 47.125 21.390625 47.125 36.375  Q 47.125 51.421875 43.28125 58.90625  Q 39.453125 66.40625 31.78125 66.40625  M 31.78125 74.21875  Q 44.046875 74.21875 50.515625 64.515625  Q 56.984375 54.828125 56.984375 36.375  Q 56.984375 17.96875 50.515625 8.265625  Q 44.046875 -1.421875 31.78125 -1.421875  Q 19.53125 -1.421875 13.0625 8.265625  Q 6.59375 17.96875 6.59375 36.375  Q 6.59375 54.828125 13.0625 64.515625  Q 19.53125 74.21875 31.78125 74.21875  " id="BitstreamVeraSans-Roman-30"/>
      </defs>
      <g transform="translate(223.257223604 178.272662969)scale(0.08 -0.08)">
       <use xlink:href="#BitstreamVeraSans-Roman-30"/>
      </g>
     </g>
    </g>
    <g id="xtick_2">
     <g id="line2d_3">
      <g>
       <use style="stroke:#000000;" x="248.484758012" xlink:href="#m184bbdd2ea" y="168.193912969"/>
      </g>
     </g>
     <g id="text_2">
      <!-- 5 -->
      <defs>
       <path d="M 10.796875 72.90625  L 49.515625 72.90625  L 49.515625 64.59375  L 19.828125 64.59375  L 19.828125 46.734375  Q 21.96875 47.46875 24.109375 47.828125  Q 26.265625 48.1875 28.421875 48.1875  Q 40.625 48.1875 47.75 41.5  Q 54.890625 34.8125 54.890625 23.390625  Q 54.890625 11.625 47.5625 5.09375  Q 40.234375 -1.421875 26.90625 -1.421875  Q 22.3125 -1.421875 17.546875 -0.640625  Q 12.796875 0.140625 7.71875 1.703125  L 7.71875 11.625  Q 12.109375 9.234375 16.796875 8.0625  Q 21.484375 6.890625 26.703125 6.890625  Q 35.15625 6.890625 40.078125 11.328125  Q 45.015625 15.765625 45.015625 23.390625  Q 45.015625 31 40.078125 35.4375  Q 35.15625 39.890625 26.703125 39.890625  Q 22.75 39.890625 18.8125 39.015625  Q 14.890625 38.140625 10.796875 36.28125  z " id="BitstreamVeraSans-Roman-35"/>
      </defs>
      <g transform="translate(245.939758012 178.272662969)scale(0.08 -0.08)">
       <use xlink:href="#BitstreamVeraSans-Roman-35"/>
      </g>
     </g>
    </g>
    <g id="xtick_3">
     <g id="line2d_4">
      <g>
       <use style="stroke:#000000;" x="271.167292421" xlink:href="#m184bbdd2ea" y="168.193912969"/>
      </g>
     </g>
     <g id="text_3">
      <!-- 10 -->
      <defs>
       <path d="M 12.40625 8.296875  L 28.515625 8.296875  L 28.515625 63.921875  L 10.984375 60.40625  L 10.984375 69.390625  L 28.421875 72.90625  L 38.28125 72.90625  L 38.28125 8.296875  L 54.390625 8.296875  L 54.390625 0  L 12.40625 0  z " id="BitstreamVeraSans-Roman-31"/>
      </defs>
      <g transform="translate(266.077292421 178.272662969)scale(0.08 -0.08)">
       <use xlink:href="#BitstreamVeraSans-Roman-31"/>
       <use x="63.623046875" xlink:href="#BitstreamVeraSans-Roman-30"/>
      </g>
     </g>
    </g>
   </g>
   <g id="matplotlib.axis_2">
    <g id="ytick_1">
     <g id="line2d_5">
      <defs>
       <path d="M 0 0  L 4 0  " id="md88d342be5" style="stroke:#000000;"/>
      </defs>
      <g>
       <use style="stroke:#000000;" x="211.265716722" xlink:href="#md88d342be5" y="153.39100486"/>
      </g>
     </g>
     <g id="text_4">
      <!-- &#8722;1 -->
      <defs>
       <path d="M 10.59375 35.5  L 73.1875 35.5  L 73.1875 27.203125  L 10.59375 27.203125  z " id="BitstreamVeraSans-Roman-2212"/>
      </defs>
      <g transform="translate(195.471966722 155.59850486)scale(0.08 -0.08)">
       <use xlink:href="#BitstreamVeraSans-Roman-2212"/>
       <use x="83.7890625" xlink:href="#BitstreamVeraSans-Roman-31"/>
      </g>
     </g>
    </g>
    <g id="ytick_2">
     <g id="line2d_6">
      <g>
       <use style="stroke:#000000;" x="211.265716722" xlink:href="#md88d342be5" y="129.376464316"/>
      </g>
     </g>
     <g id="text_5">
      <!-- 0 -->
      <g transform="translate(202.175716722 131.583964316)scale(0.08 -0.08)">
       <use xlink:href="#BitstreamVeraSans-Roman-30"/>
      </g>
     </g>
    </g>
    <g id="ytick_3">
     <g id="line2d_7">
      <g>
       <use style="stroke:#000000;" x="211.265716722" xlink:href="#md88d342be5" y="105.361923771"/>
      </g>
     </g>
     <g id="text_6">
      <!-- 1 -->
      <g transform="translate(202.175716722 107.569423771)scale(0.08 -0.08)">
       <use xlink:href="#BitstreamVeraSans-Roman-31"/>
      </g>
     </g>
    </g>
   </g>
  </g>
  <g id="axes_2">
   <g id="patch_7">
    <path d="M 221.265717 94.287877  L 334.464723 94.287877  L 334.464723 49.493918  L 221.265717 49.493918  L 221.265717 94.287877  z " style="fill:none;"/>
   </g>
   <g id="line2d_8">
    <path clip-path="url(#pcdcb7bbca3)" d="M 230.698967 71.890897  L 231.642292 70.027591  L 232.585617 68.182903  L 233.528942 66.375264  L 234.472267 64.622735  L 235.415593 62.942827  L 236.358918 61.352326  L 237.302243 59.867122  L 238.245568 58.502056  L 239.188893 57.270767  L 240.132218 56.185557  L 241.075543 55.25727  L 242.018868 54.49518  L 242.962193 53.906903  L 243.905518 53.498316  L 244.848843 53.273502  L 245.792168 53.234706  L 246.735493 53.382317  L 247.678818 53.714859  L 248.622143 54.229011  L 249.565468 54.919634  L 250.508793 55.779829  L 251.452118 56.800999  L 252.395443 57.972944  L 253.338769 59.283951  L 254.282094 60.720924  L 255.225419 62.269503  L 256.168744 63.914215  L 257.112069 65.638628  L 258.055394 67.425512  L 258.998719 69.257012  L 259.942044 71.11483  L 260.885369 72.980401  L 261.828694 74.835086  L 262.772019 76.660355  L 263.715344 78.437968  L 264.658669 80.150165  L 265.601994 81.779838  L 266.545319 83.310704  L 267.488644 84.727468  L 268.431969 86.015972  L 269.375294 87.163344  L 270.318619 88.158118  L 271.261945 88.990355  L 272.20527 89.651741  L 273.148595 90.135666  L 274.09192 90.437295  L 275.035245 90.553614  L 275.97857 90.483462  L 276.921895 90.22754  L 277.86522 89.788403  L 278.808545 89.170441  L 279.75187 88.379827  L 280.695195 87.424461  L 281.63852 86.313889  L 282.581845 85.059207  L 283.52517 83.672952  L 284.468495 82.168975  L 285.41182 80.562302  L 286.355145 78.868987  L 287.29847 77.10595  L 288.241795 75.290805  L 289.185121 73.44169  L 290.128446 71.57708  L 291.071771 69.715605  L 292.015096 67.875866  L 292.958421 66.076243  L 293.901746 64.334718  L 294.845071 62.668692  L 295.788396 61.094811  L 296.731721 59.628801  L 297.675046 58.28531  L 298.618371 57.077762  L 299.561696 56.018221  L 300.505021 55.117275  L 301.448346 54.383925  L 302.391671 53.8255  L 303.334996 53.447578  L 304.278321 53.253935  L 305.221646 53.246507  L 306.164971 53.425367  L 307.108297 53.788729  L 308.051622 54.332961  L 308.994947 55.052627  L 309.938272 55.940535  L 310.881597 56.987814  L 311.824922 58.184  L 312.768247 59.51714  L 313.711572 60.973915  L 314.654897 62.539769  L 315.598222 64.199056  L 316.541547 65.935198  L 317.484872 67.730847  L 318.428197 69.568061  L 319.371522 71.428485  L 320.314847 73.293529  L 321.258172 75.144558  L 322.201497 76.963078  L 323.144822 78.730919  L 324.088147 80.430416  " style="fill:none;stroke:#0000ff;stroke-linecap:square;"/>
   </g>
   <g id="patch_8">
    <path d="M 230.698967 39.493918  L 325.031473 39.493918  " style="fill:none;stroke:#000000;stroke-linecap:square;stroke-linejoin:miter;"/>
   </g>
   <g id="patch_9">
    <path d="M 334.464723 90.555047  L 334.464723 53.226748  " style="fill:none;"/>
   </g>
   <g id="patch_10">
    <path d="M 230.698967 94.287877  L 325.031473 94.287877  " style="fill:none;"/>
   </g>
   <g id="patch_11">
    <path d="M 211.265717 90.555047  L 211.265717 53.226748  " style="fill:none;stroke:#000000;stroke-linecap:square;stroke-linejoin:miter;"/>
   </g>
   <g id="matplotlib.axis_3">
    <g id="xtick_4">
     <g id="line2d_9">
      <defs>
       <path d="M 0 0  L 0 4  " id="mc4febe1786" style="stroke:#000000;"/>
      </defs>
      <g>
       <use style="stroke:#000000;" x="230.698967249" xlink:href="#mc4febe1786" y="39.4939178003"/>
      </g>
     </g>
     <g id="text_7">
      <!-- 0 -->
      <g transform="translate(228.153967249 33.8301678003)scale(0.08 -0.08)">
       <use xlink:href="#BitstreamVeraSans-Roman-30"/>
      </g>
     </g>
    </g>
    <g id="xtick_5">
     <g id="line2d_10">
      <g>
       <use style="stroke:#000000;" x="277.865219883" xlink:href="#mc4febe1786" y="39.4939178003"/>
      </g>
     </g>
     <g id="text_8">
      <!-- 5 -->
      <g transform="translate(275.320219883 33.8301678003)scale(0.08 -0.08)">
       <use xlink:href="#BitstreamVeraSans-Roman-35"/>
      </g>
     </g>
    </g>
    <g id="xtick_6">
     <g id="line2d_11">
      <g>
       <use style="stroke:#000000;" x="325.031472518" xlink:href="#mc4febe1786" y="39.4939178003"/>
      </g>
     </g>
     <g id="text_9">
      <!-- 10 -->
      <g transform="translate(319.941472518 33.8301678003)scale(0.08 -0.08)">
       <use xlink:href="#BitstreamVeraSans-Roman-31"/>
       <use x="63.623046875" xlink:href="#BitstreamVeraSans-Roman-30"/>
      </g>
     </g>
    </g>
   </g>
   <g id="matplotlib.axis_4">
    <g id="ytick_4">
     <g id="line2d_12">
      <g>
       <use style="stroke:#000000;" x="211.265716722" xlink:href="#md88d342be5" y="90.5550468064"/>
      </g>
     </g>
     <g id="text_10">
      <!-- &#8722;1 -->
      <g transform="translate(195.471966722 92.7625468064)scale(0.08 -0.08)">
       <use xlink:href="#BitstreamVeraSans-Roman-2212"/>
       <use x="83.7890625" xlink:href="#BitstreamVeraSans-Roman-31"/>
      </g>
     </g>
    </g>
    <g id="ytick_5">
     <g id="line2d_13">
      <g>
       <use style="stroke:#000000;" x="211.265716722" xlink:href="#md88d342be5" y="71.8908972582"/>
      </g>
     </g>
     <g id="text_11">
      <!-- 0 -->
      <g transform="translate(202.175716722 74.0983972582)scale(0.08 -0.08)">
       <use xlink:href="#BitstreamVeraSans-Roman-30"/>
      </g>
     </g>
    </g>
    <g id="ytick_6">
     <g id="line2d_14">
      <g>
       <use style="stroke:#000000;" x="211.265716722" xlink:href="#md88d342be5" y="53.2267477099"/>
      </g>
     </g>
     <g id="text_12">
      <!-- 1 -->
      <g transform="translate(202.175716722 55.4342477099)scale(0.08 -0.08)">
       <use xlink:href="#BitstreamVeraSans-Roman-31"/>
      </g>
     </g>
    </g>
   </g>
  </g>
  <g id="axes_3">
   <g id="patch_12">
    <path d="M 280.026639 158.193913  L 334.464721 158.193913  L 334.464721 100.559016  L 280.026639 100.559016  L 280.026639 158.193913  z " style="fill:none;"/>
   </g>
   <g id="line2d_15">
    <path clip-path="url(#pa262b45c8b)" d="M 284.563146 129.376464  L 285.016796 126.966973  L 285.470447 124.508476  L 285.924098 121.947896  L 286.377748 119.223279  L 286.831399 116.257261  L 287.28505 112.947233  L 287.7387 109.149296  L 288.192351 104.650167  L 288.646002 99.114344  L 289.099653 91.976033  L 289.553303 82.193664  L 290.006954 67.607425  L 290.460605 42.873629  L 290.838057 -1  M 291.449303 -1  L 291.520435 181  M 293.669918 181  L 294.08981 170.437643  L 294.543461 162.368194  L 294.997111 156.253866  L 295.450762 151.374127  L 295.904413 147.315862  L 296.358064 143.823531  L 296.811714 140.728801  L 297.265365 137.91435  L 297.719016 135.293777  L 298.172666 132.799654  L 298.626317 130.375869  L 299.079968 127.972242  L 299.533618 125.540244  L 299.987269 123.029015  L 300.44092 120.380962  L 300.89457 117.526088  L 301.348221 114.373787  L 301.801872 110.79987  L 302.255522 106.624497  L 302.709173 101.571918  L 303.162824 95.19113  L 303.616475 86.6839  L 304.070125 74.482878  L 304.523776 55.019671  L 304.977427 18.013066  L 305.062481 -1  M 306.255557 -1  L 306.292888 181  M 307.94051 181  L 308.152981 174.659288  L 308.606632 165.428855  L 309.060283 158.615148  L 309.513933 153.284958  L 309.967584 148.922938  L 310.421235 145.219591  L 310.874886 141.976083  L 311.328536 139.056987  L 311.782187 136.364844  L 312.235838 133.825452  L 312.689488 131.378742  L 313.143139 128.972629  L 313.59679 126.558383  L 314.05044 124.086609  L 314.504091 121.503105  L 314.957742 118.743848  L 315.411392 115.728041  L 315.865043 112.347486  L 316.318694 108.449041  L 316.772345 103.803545  L 317.225995 98.046592  L 317.679646 90.555484  L 318.133297 80.163847  L 318.586947 64.392785  L 319.040598 36.866074  L 319.316717 -1  M 320.095399 -1  L 320.180878 181  M 322.177394 181  L 322.216153 179.599934  L 322.669803 168.897451  L 323.123454 161.228494  L 323.577105 155.360976  L 324.030756 150.642707  L 324.484406 146.694475  L 324.938057 143.279048  L 325.391708 140.238617  L 325.845358 137.462173  L 326.299009 134.86719  L 326.75266 132.388598  L 327.20631 129.971617  L 327.659961 127.566627  L 328.113612 125.124988  L 328.567262 122.595038  L 329.020913 119.917544  L 329.474564 117.019713  " style="fill:none;stroke:#0000ff;stroke-linecap:square;"/>
   </g>
   <g id="patch_13">
    <path d="M 284.563146 100.559016  L 329.928214 100.559016  " style="fill:none;"/>
   </g>
   <g id="patch_14">
    <path d="M 344.464721 153.391005  L 344.464721 105.361924  " style="fill:none;stroke:#000000;stroke-linecap:square;stroke-linejoin:miter;"/>
   </g>
   <g id="patch_15">
    <path d="M 284.563146 168.193913  L 329.928214 168.193913  " style="fill:none;stroke:#000000;stroke-linecap:square;stroke-linejoin:miter;"/>
   </g>
   <g id="patch_16">
    <path d="M 280.026639 153.391005  L 280.026639 105.361924  " style="fill:none;"/>
   </g>
   <g id="matplotlib.axis_5">
    <g id="xtick_7">
     <g id="line2d_16">
      <g>
       <use style="stroke:#000000;" x="284.56314565" xlink:href="#m184bbdd2ea" y="168.193912969"/>
      </g>
     </g>
     <g id="text_13">
      <!-- 0 -->
      <g transform="translate(282.01814565 178.272662969)scale(0.08 -0.08)">
       <use xlink:href="#BitstreamVeraSans-Roman-30"/>
      </g>
     </g>
    </g>
    <g id="xtick_8">
     <g id="line2d_17">
      <g>
       <use style="stroke:#000000;" x="307.245680059" xlink:href="#m184bbdd2ea" y="168.193912969"/>
      </g>
     </g>
     <g id="text_14">
      <!-- 5 -->
      <g transform="translate(304.700680059 178.272662969)scale(0.08 -0.08)">
       <use xlink:href="#BitstreamVeraSans-Roman-35"/>
      </g>
     </g>
    </g>
    <g id="xtick_9">
     <g id="line2d_18">
      <g>
       <use style="stroke:#000000;" x="329.928214467" xlink:href="#m184bbdd2ea" y="168.193912969"/>
      </g>
     </g>
     <g id="text_15">
      <!-- 10 -->
      <g transform="translate(324.838214467 178.272662969)scale(0.08 -0.08)">
       <use xlink:href="#BitstreamVeraSans-Roman-31"/>
       <use x="63.623046875" xlink:href="#BitstreamVeraSans-Roman-30"/>
      </g>
     </g>
    </g>
   </g>
   <g id="matplotlib.axis_6">
    <g id="ytick_7">
     <g id="line2d_19">
      <defs>
       <path d="M 0 0  L -4 0  " id="mabe408df0e" style="stroke:#000000;"/>
      </defs>
      <g>
       <use style="stroke:#000000;" x="344.464721349" xlink:href="#mabe408df0e" y="153.39100486"/>
      </g>
     </g>
     <g id="text_16">
      <!-- &#8722;1 -->
      <g transform="translate(348.464721349 155.59850486)scale(0.08 -0.08)">
       <use xlink:href="#BitstreamVeraSans-Roman-2212"/>
       <use x="83.7890625" xlink:href="#BitstreamVeraSans-Roman-31"/>
      </g>
     </g>
    </g>
    <g id="ytick_8">
     <g id="line2d_20">
      <g>
       <use style="stroke:#000000;" x="344.464721349" xlink:href="#mabe408df0e" y="129.376464316"/>
      </g>
     </g>
     <g id="text_17">
      <!-- 0 -->
      <g transform="translate(348.464721349 131.583964316)scale(0.08 -0.08)">
       <use xlink:href="#BitstreamVeraSans-Roman-30"/>
      </g>
     </g>
    </g>
    <g id="ytick_9">
     <g id="line2d_21">
      <g>
       <use style="stroke:#000000;" x="344.464721349" xlink:href="#mabe408df0e" y="105.361923771"/>
      </g>
     </g>
     <g id="text_18">
      <!-- 1 -->
      <g transform="translate(348.464721349 107.569423771)scale(0.08 -0.08)">
       <use xlink:href="#BitstreamVeraSans-Roman-31"/>
      </g>
     </g>
    </g>
   </g>
  </g>
 </g>
 <defs>
  <clipPath id="pfc3e88e76a">
   <rect height="57.6348973067" width="54.4380825804" x="221.265716722" y="100.559015662"/>
  </clipPath>
  <clipPath id="pa262b45c8b">
   <rect height="57.6348973067" width="54.4380825804" x="280.026638768" y="100.559015662"/>
  </clipPath>
  <clipPath id="pcdcb7bbca3">
   <rect height="44.7939589158" width="113.199006323" x="221.265716722" y="49.4939178003"/>
  </clipPath>
 </defs>
</g><g figurefirst:date-modified="May 11 2017 09:45:39 PST" figurefirst:notes="random data about orange bats" figurefirst:traceback="['  File &quot;./make_figure_example.py&quot;, line 64, in &lt;module&gt;\n    make_plot(template_filename, output_filename)\n', '  File &quot;./make_figure_example.py&quot;, line 54, in make_plot\n    notes=notes[group])  # save notes about the data into the svg\n', '  File &quot;/usr/local/lib/python2.7/dist-packages/figurefirst/svg_to_axes.py&quot;, line 947, in append_figure_to_layer\n    tb = traceback.extract_stack()\n']" id="group3" inkscape:groupmode="layer" inkscape:label="group3" style="display:inline;stroke-linecap:butt;stroke-linejoin:round" transform="scale(1.25000001852,1.25000001852)"><figurefirst:targetlayer figurefirst:name="group3"/>
 <defs>
  <style type="text/css">
*{stroke-linecap:butt;stroke-linejoin:round;stroke-miterlimit:100000;}
  </style>
 </defs>
 <g id="figure_1">
  <g id="patch_1">
   <path d="M 0 180  L 540 180  L 540 0  L 0 0  L 0 180  z " style="fill:none;"/>
  </g>
  <g id="axes_1">
   <g id="patch_2">
    <path d="M 397.60097 158.193913  L 452.039053 158.193913  L 452.039053 100.559016  L 397.60097 100.559016  L 397.60097 158.193913  z " style="fill:none;"/>
   </g>
   <g id="line2d_1">
    <path clip-path="url(#p0d4748517f)" d="M 402.137477 105.361924  L 402.591128 105.481896  L 403.044778 105.840616  L 403.498429 106.434497  L 403.95208 107.257608  L 404.40573 108.301722  L 404.859381 109.556409  L 405.313032 111.009131  L 405.766682 112.645373  L 406.220333 114.448787  L 406.673984 116.401353  L 407.127635 118.483562  L 407.581285 120.674609  L 408.034936 122.952603  L 408.488587 125.294781  L 408.942237 127.677743  L 409.395888 130.077677  L 409.849539 132.470606  L 410.303189 134.832618  L 410.75684 137.140115  L 411.210491 139.370039  L 411.664141 141.500112  L 412.117792 143.509048  L 412.571443 145.376777  L 413.025094 147.084636  L 413.478744 148.61556  L 413.932395 149.954254  L 414.386046 151.087341  L 414.839696 152.003501  L 415.293347 152.693579  L 415.746998 153.150679  L 416.200648 153.370236  L 416.654299 153.350055  L 417.10795 153.090337  L 417.5616 152.593679  L 418.015251 151.865041  L 418.468902 150.911706  L 418.922552 149.743197  L 419.376203 148.371191  L 419.829854 146.809395  L 420.283505 145.073416  L 420.737155 143.180597  L 421.190806 141.149853  L 421.644457 139.001472  L 422.098107 136.756922  L 422.551758 134.438629  L 423.005409 132.069756  L 423.459059 129.673972  L 423.91271 127.275216  L 424.366361 124.897455  L 424.820011 122.564447  L 425.273662 120.299502  L 425.727313 118.125252  L 426.180963 116.063419  L 426.634614 114.134607  L 427.088265 112.358085  L 427.541916 110.751606  L 427.995566 109.33122  L 428.449217 108.11112  L 428.902868 107.103496  L 429.356518 106.318416  L 429.810169 105.763725  L 430.26382 105.444964  L 430.71747 105.365319  L 431.171121 105.525585  L 431.624772 105.924161  L 432.078422 106.557065  L 432.532073 107.417973  L 432.985724 108.498283  L 433.439374 109.787201  L 433.893025 111.271848  L 434.346676 112.937391  L 434.800327 114.767187  L 435.253977 116.742954  L 435.707628 118.844952  L 436.161279 121.052176  L 436.614929 123.342575  L 437.06858 125.693261  L 437.522231 128.08075  L 437.975881 130.481184  L 438.429532 132.870581  L 438.883183 135.225065  L 439.336833 137.521112  L 439.790484 139.735781  L 440.244135 141.846943  L 440.697785 143.833504  L 441.151436 145.675614  L 441.605087 147.35487  L 442.058738 148.85449  L 442.512388 150.159493  L 442.966039 151.256839  L 443.41969 152.135563  L 443.87334 152.786886  L 444.326991 153.2043  L 444.780642 153.383633  L 445.234292 153.323095  L 445.687943 153.023291  L 446.141594 152.487215  L 446.595244 151.720224  L 447.048895 150.729981  " style="fill:none;stroke:#ffa500;stroke-linecap:square;"/>
   </g>
   <g id="patch_3">
    <path d="M 402.137477 100.559016  L 447.502546 100.559016  " style="fill:none;"/>
   </g>
   <g id="patch_4">
    <path d="M 452.039053 153.391005  L 452.039053 105.361924  " style="fill:none;"/>
   </g>
   <g id="patch_5">
    <path d="M 402.137477 168.193913  L 447.502546 168.193913  " style="fill:none;stroke:#000000;stroke-linecap:square;stroke-linejoin:miter;"/>
   </g>
   <g id="patch_6">
    <path d="M 387.60097 153.391005  L 387.60097 105.361924  " style="fill:none;stroke:#000000;stroke-linecap:square;stroke-linejoin:miter;"/>
   </g>
   <g id="matplotlib.axis_1">
    <g id="xtick_1">
     <g id="line2d_2">
      <defs>
       <path d="M 0 0  L 0 -4  " id="m5694392496" style="stroke:#000000;"/>
      </defs>
      <g>
       <use style="stroke:#000000;" x="402.137476991" xlink:href="#m5694392496" y="168.193912969"/>
      </g>
     </g>
     <g id="text_1">
      <!-- 0 -->
      <defs>
       <path d="M 31.78125 66.40625  Q 24.171875 66.40625 20.328125 58.90625  Q 16.5 51.421875 16.5 36.375  Q 16.5 21.390625 20.328125 13.890625  Q 24.171875 6.390625 31.78125 6.390625  Q 39.453125 6.390625 43.28125 13.890625  Q 47.125 21.390625 47.125 36.375  Q 47.125 51.421875 43.28125 58.90625  Q 39.453125 66.40625 31.78125 66.40625  M 31.78125 74.21875  Q 44.046875 74.21875 50.515625 64.515625  Q 56.984375 54.828125 56.984375 36.375  Q 56.984375 17.96875 50.515625 8.265625  Q 44.046875 -1.421875 31.78125 -1.421875  Q 19.53125 -1.421875 13.0625 8.265625  Q 6.59375 17.96875 6.59375 36.375  Q 6.59375 54.828125 13.0625 64.515625  Q 19.53125 74.21875 31.78125 74.21875  " id="BitstreamVeraSans-Roman-30"/>
      </defs>
      <g transform="translate(399.592476991 178.272662969)scale(0.08 -0.08)">
       <use xlink:href="#BitstreamVeraSans-Roman-30"/>
      </g>
     </g>
    </g>
    <g id="xtick_2">
     <g id="line2d_3">
      <g>
       <use style="stroke:#000000;" x="424.8200114" xlink:href="#m5694392496" y="168.193912969"/>
      </g>
     </g>
     <g id="text_2">
      <!-- 5 -->
      <defs>
       <path d="M 10.796875 72.90625  L 49.515625 72.90625  L 49.515625 64.59375  L 19.828125 64.59375  L 19.828125 46.734375  Q 21.96875 47.46875 24.109375 47.828125  Q 26.265625 48.1875 28.421875 48.1875  Q 40.625 48.1875 47.75 41.5  Q 54.890625 34.8125 54.890625 23.390625  Q 54.890625 11.625 47.5625 5.09375  Q 40.234375 -1.421875 26.90625 -1.421875  Q 22.3125 -1.421875 17.546875 -0.640625  Q 12.796875 0.140625 7.71875 1.703125  L 7.71875 11.625  Q 12.109375 9.234375 16.796875 8.0625  Q 21.484375 6.890625 26.703125 6.890625  Q 35.15625 6.890625 40.078125 11.328125  Q 45.015625 15.765625 45.015625 23.390625  Q 45.015625 31 40.078125 35.4375  Q 35.15625 39.890625 26.703125 39.890625  Q 22.75 39.890625 18.8125 39.015625  Q 14.890625 38.140625 10.796875 36.28125  z " id="BitstreamVeraSans-Roman-35"/>
      </defs>
      <g transform="translate(422.2750114 178.272662969)scale(0.08 -0.08)">
       <use xlink:href="#BitstreamVeraSans-Roman-35"/>
      </g>
     </g>
    </g>
    <g id="xtick_3">
     <g id="line2d_4">
      <g>
       <use style="stroke:#000000;" x="447.502545808" xlink:href="#m5694392496" y="168.193912969"/>
      </g>
     </g>
     <g id="text_3">
      <!-- 10 -->
      <defs>
       <path d="M 12.40625 8.296875  L 28.515625 8.296875  L 28.515625 63.921875  L 10.984375 60.40625  L 10.984375 69.390625  L 28.421875 72.90625  L 38.28125 72.90625  L 38.28125 8.296875  L 54.390625 8.296875  L 54.390625 0  L 12.40625 0  z " id="BitstreamVeraSans-Roman-31"/>
      </defs>
      <g transform="translate(442.412545808 178.272662969)scale(0.08 -0.08)">
       <use xlink:href="#BitstreamVeraSans-Roman-31"/>
       <use x="63.623046875" xlink:href="#BitstreamVeraSans-Roman-30"/>
      </g>
     </g>
    </g>
   </g>
   <g id="matplotlib.axis_2">
    <g id="ytick_1">
     <g id="line2d_5">
      <defs>
       <path d="M 0 0  L 4 0  " id="m413f0a120f" style="stroke:#000000;"/>
      </defs>
      <g>
       <use style="stroke:#000000;" x="387.60097011" xlink:href="#m413f0a120f" y="153.39100486"/>
      </g>
     </g>
     <g id="text_4">
      <!-- &#8722;1 -->
      <defs>
       <path d="M 10.59375 35.5  L 73.1875 35.5  L 73.1875 27.203125  L 10.59375 27.203125  z " id="BitstreamVeraSans-Roman-2212"/>
      </defs>
      <g transform="translate(371.80722011 155.59850486)scale(0.08 -0.08)">
       <use xlink:href="#BitstreamVeraSans-Roman-2212"/>
       <use x="83.7890625" xlink:href="#BitstreamVeraSans-Roman-31"/>
      </g>
     </g>
    </g>
    <g id="ytick_2">
     <g id="line2d_6">
      <g>
       <use style="stroke:#000000;" x="387.60097011" xlink:href="#m413f0a120f" y="129.376464316"/>
      </g>
     </g>
     <g id="text_5">
      <!-- 0 -->
      <g transform="translate(378.51097011 131.583964316)scale(0.08 -0.08)">
       <use xlink:href="#BitstreamVeraSans-Roman-30"/>
      </g>
     </g>
    </g>
    <g id="ytick_3">
     <g id="line2d_7">
      <g>
       <use style="stroke:#000000;" x="387.60097011" xlink:href="#m413f0a120f" y="105.361923771"/>
      </g>
     </g>
     <g id="text_6">
      <!-- 1 -->
      <g transform="translate(378.51097011 107.569423771)scale(0.08 -0.08)">
       <use xlink:href="#BitstreamVeraSans-Roman-31"/>
      </g>
     </g>
    </g>
   </g>
  </g>
  <g id="axes_2">
   <g id="patch_7">
    <path d="M 397.60097 94.287877  L 510.799976 94.287877  L 510.799976 49.493918  L 397.60097 49.493918  L 397.60097 94.287877  z " style="fill:none;"/>
   </g>
   <g id="line2d_8">
    <path clip-path="url(#pcadaa33b2b)" d="M 407.034221 71.890897  L 407.977546 70.027591  L 408.920871 68.182903  L 409.864196 66.375264  L 410.807521 64.622735  L 411.750846 62.942827  L 412.694171 61.352326  L 413.637496 59.867122  L 414.580821 58.502056  L 415.524146 57.270767  L 416.467471 56.185557  L 417.410796 55.25727  L 418.354121 54.49518  L 419.297446 53.906903  L 420.240771 53.498316  L 421.184096 53.273502  L 422.127421 53.234706  L 423.070747 53.382317  L 424.014072 53.714859  L 424.957397 54.229011  L 425.900722 54.919634  L 426.844047 55.779829  L 427.787372 56.800999  L 428.730697 57.972944  L 429.674022 59.283951  L 430.617347 60.720924  L 431.560672 62.269503  L 432.503997 63.914215  L 433.447322 65.638628  L 434.390647 67.425512  L 435.333972 69.257012  L 436.277297 71.11483  L 437.220622 72.980401  L 438.163947 74.835086  L 439.107272 76.660355  L 440.050597 78.437968  L 440.993923 80.150165  L 441.937248 81.779838  L 442.880573 83.310704  L 443.823898 84.727468  L 444.767223 86.015972  L 445.710548 87.163344  L 446.653873 88.158118  L 447.597198 88.990355  L 448.540523 89.651741  L 449.483848 90.135666  L 450.427173 90.437295  L 451.370498 90.553614  L 452.313823 90.483462  L 453.257148 90.22754  L 454.200473 89.788403  L 455.143798 89.170441  L 456.087123 88.379827  L 457.030448 87.424461  L 457.973773 86.313889  L 458.917099 85.059207  L 459.860424 83.672952  L 460.803749 82.168975  L 461.747074 80.562302  L 462.690399 78.868987  L 463.633724 77.10595  L 464.577049 75.290805  L 465.520374 73.44169  L 466.463699 71.57708  L 467.407024 69.715605  L 468.350349 67.875866  L 469.293674 66.076243  L 470.236999 64.334718  L 471.180324 62.668692  L 472.123649 61.094811  L 473.066974 59.628801  L 474.010299 58.28531  L 474.953624 57.077762  L 475.896949 56.018221  L 476.840275 55.117275  L 477.7836 54.383925  L 478.726925 53.8255  L 479.67025 53.447578  L 480.613575 53.253935  L 481.5569 53.246507  L 482.500225 53.425367  L 483.44355 53.788729  L 484.386875 54.332961  L 485.3302 55.052627  L 486.273525 55.940535  L 487.21685 56.987814  L 488.160175 58.184  L 489.1035 59.51714  L 490.046825 60.973915  L 490.99015 62.539769  L 491.933475 64.199056  L 492.8768 65.935198  L 493.820125 67.730847  L 494.763451 69.568061  L 495.706776 71.428485  L 496.650101 73.293529  L 497.593426 75.144558  L 498.536751 76.963078  L 499.480076 78.730919  L 500.423401 80.430416  " style="fill:none;stroke:#ffa500;stroke-linecap:square;"/>
   </g>
   <g id="patch_8">
    <path d="M 407.034221 39.493918  L 501.366726 39.493918  " style="fill:none;stroke:#000000;stroke-linecap:square;stroke-linejoin:miter;"/>
   </g>
   <g id="patch_9">
    <path d="M 510.799976 90.555047  L 510.799976 53.226748  " style="fill:none;"/>
   </g>
   <g id="patch_10">
    <path d="M 407.034221 94.287877  L 501.366726 94.287877  " style="fill:none;"/>
   </g>
   <g id="patch_11">
    <path d="M 387.60097 90.555047  L 387.60097 53.226748  " style="fill:none;stroke:#000000;stroke-linecap:square;stroke-linejoin:miter;"/>
   </g>
   <g id="matplotlib.axis_3">
    <g id="xtick_4">
     <g id="line2d_9">
      <defs>
       <path d="M 0 0  L 0 4  " id="m2da4ec8c05" style="stroke:#000000;"/>
      </defs>
      <g>
       <use style="stroke:#000000;" x="407.034220637" xlink:href="#m2da4ec8c05" y="39.4939178003"/>
      </g>
     </g>
     <g id="text_7">
      <!-- 0 -->
      <g transform="translate(404.489220637 33.8301678003)scale(0.08 -0.08)">
       <use xlink:href="#BitstreamVeraSans-Roman-30"/>
      </g>
     </g>
    </g>
    <g id="xtick_5">
     <g id="line2d_10">
      <g>
       <use style="stroke:#000000;" x="454.200473271" xlink:href="#m2da4ec8c05" y="39.4939178003"/>
      </g>
     </g>
     <g id="text_8">
      <!-- 5 -->
      <g transform="translate(451.655473271 33.8301678003)scale(0.08 -0.08)">
       <use xlink:href="#BitstreamVeraSans-Roman-35"/>
      </g>
     </g>
    </g>
    <g id="xtick_6">
     <g id="line2d_11">
      <g>
       <use style="stroke:#000000;" x="501.366725906" xlink:href="#m2da4ec8c05" y="39.4939178003"/>
      </g>
     </g>
     <g id="text_9">
      <!-- 10 -->
      <g transform="translate(496.276725906 33.8301678003)scale(0.08 -0.08)">
       <use xlink:href="#BitstreamVeraSans-Roman-31"/>
       <use x="63.623046875" xlink:href="#BitstreamVeraSans-Roman-30"/>
      </g>
     </g>
    </g>
   </g>
   <g id="matplotlib.axis_4">
    <g id="ytick_4">
     <g id="line2d_12">
      <g>
       <use style="stroke:#000000;" x="387.60097011" xlink:href="#m413f0a120f" y="90.5550468064"/>
      </g>
     </g>
     <g id="text_10">
      <!-- &#8722;1 -->
      <g transform="translate(371.80722011 92.7625468064)scale(0.08 -0.08)">
       <use xlink:href="#BitstreamVeraSans-Roman-2212"/>
       <use x="83.7890625" xlink:href="#BitstreamVeraSans-Roman-31"/>
      </g>
     </g>
    </g>
    <g id="ytick_5">
     <g id="line2d_13">
      <g>
       <use style="stroke:#000000;" x="387.60097011" xlink:href="#m413f0a120f" y="71.8908972582"/>
      </g>
     </g>
     <g id="text_11">
      <!-- 0 -->
      <g transform="translate(378.51097011 74.0983972582)scale(0.08 -0.08)">
       <use xlink:href="#BitstreamVeraSans-Roman-30"/>
      </g>
     </g>
    </g>
    <g id="ytick_6">
     <g id="line2d_14">
      <g>
       <use style="stroke:#000000;" x="387.60097011" xlink:href="#m413f0a120f" y="53.2267477099"/>
      </g>
     </g>
     <g id="text_12">
      <!-- 1 -->
      <g transform="translate(378.51097011 55.4342477099)scale(0.08 -0.08)">
       <use xlink:href="#BitstreamVeraSans-Roman-31"/>
      </g>
     </g>
    </g>
   </g>
  </g>
  <g id="axes_3">
   <g id="patch_12">
    <path d="M 456.361892 158.193913  L 510.799975 158.193913  L 510.799975 100.559016  L 456.361892 100.559016  L 456.361892 158.193913  z " style="fill:none;"/>
   </g>
   <g id="line2d_15">
    <path clip-path="url(#p5c538748ef)" d="M 460.898399 129.376464  L 461.35205 126.966973  L 461.8057 124.508476  L 462.259351 121.947896  L 462.713002 119.223279  L 463.166652 116.257261  L 463.620303 112.947233  L 464.073954 109.149296  L 464.527605 104.650167  L 464.981255 99.114344  L 465.434906 91.976033  L 465.888557 82.193664  L 466.342207 67.607425  L 466.795858 42.873629  L 467.17331 -1  M 467.784556 -1  L 467.855688 181  M 470.005171 181  L 470.425063 170.437643  L 470.878714 162.368194  L 471.332365 156.253866  L 471.786016 151.374127  L 472.239666 147.315862  L 472.693317 143.823531  L 473.146968 140.728801  L 473.600618 137.91435  L 474.054269 135.293777  L 474.50792 132.799654  L 474.96157 130.375869  L 475.415221 127.972242  L 475.868872 125.540244  L 476.322522 123.029015  L 476.776173 120.380962  L 477.229824 117.526088  L 477.683474 114.373787  L 478.137125 110.79987  L 478.590776 106.624497  L 479.044427 101.571918  L 479.498077 95.19113  L 479.951728 86.6839  L 480.405379 74.482878  L 480.859029 55.019671  L 481.31268 18.013066  L 481.397734 -1  M 482.590811 -1  L 482.628142 181  M 484.275763 181  L 484.488235 174.659288  L 484.941886 165.428855  L 485.395536 158.615148  L 485.849187 153.284958  L 486.302838 148.922938  L 486.756488 145.219591  L 487.210139 141.976083  L 487.66379 139.056987  L 488.11744 136.364844  L 488.571091 133.825452  L 489.024742 131.378742  L 489.478392 128.972629  L 489.932043 126.558383  L 490.385694 124.086609  L 490.839344 121.503105  L 491.292995 118.743848  L 491.746646 115.728041  L 492.200297 112.347486  L 492.653947 108.449041  L 493.107598 103.803545  L 493.561249 98.046592  L 494.014899 90.555484  L 494.46855 80.163847  L 494.922201 64.392785  L 495.375851 36.866074  L 495.65197 -1  M 496.430653 -1  L 496.516131 181  M 498.512647 181  L 498.551406 179.599934  L 499.005057 168.897451  L 499.458708 161.228494  L 499.912358 155.360976  L 500.366009 150.642707  L 500.81966 146.694475  L 501.27331 143.279048  L 501.726961 140.238617  L 502.180612 137.462173  L 502.634262 134.86719  L 503.087913 132.388598  L 503.541564 129.971617  L 503.995214 127.566627  L 504.448865 125.124988  L 504.902516 122.595038  L 505.356166 119.917544  L 505.809817 117.019713  " style="fill:none;stroke:#ffa500;stroke-linecap:square;"/>
   </g>
   <g id="patch_13">
    <path d="M 460.898399 100.559016  L 506.263468 100.559016  " style="fill:none;"/>
   </g>
   <g id="patch_14">
    <path d="M 520.799975 153.391005  L 520.799975 105.361924  " style="fill:none;stroke:#000000;stroke-linecap:square;stroke-linejoin:miter;"/>
   </g>
   <g id="patch_15">
    <path d="M 460.898399 168.193913  L 506.263468 168.193913  " style="fill:none;stroke:#000000;stroke-linecap:square;stroke-linejoin:miter;"/>
   </g>
   <g id="patch_16">
    <path d="M 456.361892 153.391005  L 456.361892 105.361924  " style="fill:none;"/>
   </g>
   <g id="matplotlib.axis_5">
    <g id="xtick_7">
     <g id="line2d_16">
      <g>
       <use style="stroke:#000000;" x="460.898399038" xlink:href="#m5694392496" y="168.193912969"/>
      </g>
     </g>
     <g id="text_13">
      <!-- 0 -->
      <g transform="translate(458.353399038 178.272662969)scale(0.08 -0.08)">
       <use xlink:href="#BitstreamVeraSans-Roman-30"/>
      </g>
     </g>
    </g>
    <g id="xtick_8">
     <g id="line2d_17">
      <g>
       <use style="stroke:#000000;" x="483.580933446" xlink:href="#m5694392496" y="168.193912969"/>
      </g>
     </g>
     <g id="text_14">
      <!-- 5 -->
      <g transform="translate(481.035933446 178.272662969)scale(0.08 -0.08)">
       <use xlink:href="#BitstreamVeraSans-Roman-35"/>
      </g>
     </g>
    </g>
    <g id="xtick_9">
     <g id="line2d_18">
      <g>
       <use style="stroke:#000000;" x="506.263467855" xlink:href="#m5694392496" y="168.193912969"/>
      </g>
     </g>
     <g id="text_15">
      <!-- 10 -->
      <g transform="translate(501.173467855 178.272662969)scale(0.08 -0.08)">
       <use xlink:href="#BitstreamVeraSans-Roman-31"/>
       <use x="63.623046875" xlink:href="#BitstreamVeraSans-Roman-30"/>
      </g>
     </g>
    </g>
   </g>
   <g id="matplotlib.axis_6">
    <g id="ytick_7">
     <g id="line2d_19">
      <defs>
       <path d="M 0 0  L -4 0  " id="md5904b2aeb" style="stroke:#000000;"/>
      </defs>
      <g>
       <use style="stroke:#000000;" x="520.799974736" xlink:href="#md5904b2aeb" y="153.39100486"/>
      </g>
     </g>
     <g id="text_16">
      <!-- &#8722;1 -->
      <g transform="translate(524.799974736 155.59850486)scale(0.08 -0.08)">
       <use xlink:href="#BitstreamVeraSans-Roman-2212"/>
       <use x="83.7890625" xlink:href="#BitstreamVeraSans-Roman-31"/>
      </g>
     </g>
    </g>
    <g id="ytick_8">
     <g id="line2d_20">
      <g>
       <use style="stroke:#000000;" x="520.799974736" xlink:href="#md5904b2aeb" y="129.376464316"/>
      </g>
     </g>
     <g id="text_17">
      <!-- 0 -->
      <g transform="translate(524.799974736 131.583964316)scale(0.08 -0.08)">
       <use xlink:href="#BitstreamVeraSans-Roman-30"/>
      </g>
     </g>
    </g>
    <g id="ytick_9">
     <g id="line2d_21">
      <g>
       <use style="stroke:#000000;" x="520.799974736" xlink:href="#md5904b2aeb" y="105.361923771"/>
      </g>
     </g>
     <g id="text_18">
      <!-- 1 -->
      <g transform="translate(524.799974736 107.569423771)scale(0.08 -0.08)">
       <use xlink:href="#BitstreamVeraSans-Roman-31"/>
      </g>
     </g>
    </g>
   </g>
  </g>
 </g>
 <defs>
  <clipPath id="p5c538748ef">
   <rect height="57.6348973067" width="54.4380825804" x="456.361892156" y="100.559015662"/>
  </clipPath>
  <clipPath id="pcadaa33b2b">
   <rect height="44.7939589158" width="113.199006323" x="397.60097011" y="49.4939178003"/>
  </clipPath>
  <clipPath id="p0d4748517f">
   <rect height="57.6348973067" width="54.4380825804" x="397.60097011" y="100.559015662"/>
  </clipPath>
 </defs>
</g></svg>