<?xml version="1.0" ?><!-- Created with Inkscape (http://www.inkscape.org/) --><svg height="3in" id="svg2" inkscape:version="0.91 r13725" sodipodi:docname="hello_world_layout.svg" version="1.1" viewBox="0 0 600 300" width="6in" xmlns="http://www.w3.org/2000/svg" xmlns:cc="http://creativecommons.org/ns#" xmlns:dc="http://purl.org/dc/elements/1.1/" xmlns:figurefirst="http://flyranch.github.io/figurefirst/" xmlns:inkscape="http://www.inkscape.org/namespaces/inkscape" xmlns:rdf="http://www.w3.org/1999/02/22-rdf-syntax-ns#" xmlns:sodipodi="http://sodipodi.sourceforge.net/DTD/sodipodi-0.dtd" xmlns:svg="http://www.w3.org/2000/svg" xmlns:xlink="http://www.w3.org/1999/xlink">
  <defs id="defs4"/>
  <sodipodi:namedview bordercolor="#666666" borderopacity="1.0" id="base" inkscape:current-layer="svg2" inkscape:cx="101.05108" inkscape:cy="-27.611916" inkscape:document-units="in" inkscape:guide-bbox="true" inkscape:pageopacity="0.0" inkscape:pageshadow="2" inkscape:window-height="1026" inkscape:window-maximized="1" inkscape:window-width="1615" inkscape:window-x="1985" inkscape:window-y="24" inkscape:zoom="0.88077518" pagecolor="#ffffff" showgrid="false" showguides="false" units="in"/>
  <metadata id="metadata7">
    <rdf:RDF>
      <cc:Work rdf:about="">
        <dc:format>image/svg+xml</dc:format>
        <dc:type rdf:resource="http://purl.org/dc/dcmitype/StillImage"/>
        <dc:title/>
      </cc:Work>
    </rdf:RDF>
  </metadata>
  <g id="layer1" inkscape:groupmode="layer" inkscape:label="Layer 1" style="display:inline" transform="translate(0,-500.00001)">
    <rect height="208.43677" id="rect3205" style="opacity:0.23699999;fill:#0000ff;fill-rule:evenodd;stroke:none;stroke-width:10;stroke-linecap:butt;stroke-linejoin:miter;stroke-miterlimit:4;stroke-dasharray:none;stroke-opacity:1" width="439.90585" x="80.263771" y="520.66113">
      <figurefirst:axis figurefirst:name="ax_name"/>
    </rect>
  </g>
  <g id="layer2" inkscape:groupmode="layer" inkscape:label="Layer 2" style="display:inline" transform="scale(1.38888888889,1.38888888889)">
    <figurefirst:targetlayer figurefirst:name="target_layer_name"/>
  
 <defs>
  <style type="text/css">
*{stroke-linecap:butt;stroke-linejoin:round;stroke-miterlimit:100000;}
  </style>
 </defs>
 <g id="figure_1">
  <g id="patch_1">
   <path d="M 0 216  L 432 216  L 432 0  L 0 0  L 0 216  z " style="fill:none;"/>
  </g>
  <g id="axes_1">
   <g id="patch_2">
    <path d="M 57.789915 164.950481  L 374.522127 164.950481  L 374.522127 14.876006  L 57.789915 14.876006  L 57.789915 164.950481  z " style="fill:none;"/>
   </g>
   <g id="line2d_1">
    <path clip-path="url(#p7529ce099d)" d="M 176.881227 23.451691  L 169.279654 23.451691  L 169.279654 32.027375  L 173.08044 40.603059  L 173.08044 130.647744  L 169.279654 139.223428  L 169.279654 143.51127  L 180.682013 143.51127  L 180.682013 139.223428  L 176.881227 130.647744  L 176.881227 23.451691  L 176.881227 23.451691  L 190.817444 23.451691  L 183.215871 23.451691  L 183.215871 32.027375  L 187.016658 40.603059  L 187.016658 130.647744  L 183.215871 139.223428  L 183.215871 143.51127  L 194.618231 143.51127  L 194.618231 139.223428  L 190.817444 130.647744  L 190.817444 23.451691  L 190.817444 23.451691  L 340.315048 23.451691  L 332.713475 23.451691  L 332.713475 32.027375  L 336.514262 40.603059  L 336.514262 130.647744  L 332.713475 139.223428  L 332.713475 143.51127  L 344.115835 143.51127  L 344.115835 139.223428  L 340.315048 130.647744  L 340.315048 23.451691  L 340.315048 23.451691  L 368.187483 23.451691  L 360.58591 23.451691  L 360.58591 32.027375  L 364.386696 40.603059  L 364.386696 79.193638  L 358.052052 66.330112  L 346.649692 104.920691  L 358.052052 143.51127  L 364.386696 134.935586  L 364.386696 143.51127  L 371.988269 143.51127  L 371.988269 139.223428  L 368.187483 126.359902  L 368.187483 23.451691  L 368.187483 23.451691  L 108.467069 23.451691  L 108.467069 32.027375  L 109.733998 32.027375  L 113.534784 40.603059  L 113.534784 130.647744  L 109.733998 139.223428  L 108.467069 139.223428  L 108.467069 143.51127  L 123.670215 143.51127  L 123.670215 139.223428  L 122.403286 139.223428  L 118.6025 130.647744  L 118.6025 83.48148  L 133.805646 83.48148  L 133.805646 130.647744  L 130.004859 139.223428  L 128.737931 139.223428  L 128.737931 143.51127  L 143.941077 143.51127  L 143.941077 139.223428  L 142.674148 139.223428  L 137.606433 130.647744  L 137.606433 40.603059  L 142.674148 32.027375  L 143.941077 32.027375  L 143.941077 23.451691  L 136.339504 27.739533  L 128.737931 23.451691  L 128.737931 32.027375  L 130.004859 32.027375  L 133.805646 40.603059  L 133.805646 79.193638  L 118.6025 79.193638  L 118.6025 40.603059  L 122.403286 32.027375  L 123.670215 32.027375  L 123.670215 23.451691  L 116.068642 27.739533  L 108.467069 23.451691  L 108.467069 23.451691  L 238.96074 23.451691  L 238.96074 32.027375  L 244.028456 36.315217  L 254.163887 143.51127  L 254.163887 147.799112  L 255.430815 143.51127  L 264.299317 57.754428  L 271.90089 143.51127  L 273.167819 147.799112  L 274.434748 143.51127  L 284.570179 40.603059  L 289.637894 32.027375  L 289.637894 23.451691  L 284.570179 27.739533  L 278.235535 23.451691  L 278.235535 32.027375  L 283.30325 40.603059  L 282.036321 44.890901  L 274.434748 122.07206  L 266.833175 36.315217  L 266.833175 36.315217  L 270.633962 32.027375  L 270.633962 23.451691  L 264.299317 27.739533  L 257.964673 23.451691  L 257.964673 32.027375  L 261.76546 36.315217  L 263.032388 49.178743  L 256.697744 122.07206  L 247.829242 36.315217  L 247.829242 36.315217  L 251.630029 32.027375  L 251.630029 23.451691  L 245.295385 27.739533  L 238.96074 23.451691  L 238.96074 23.451691  L 156.610365 66.330112  L 146.474934 104.920691  L 157.877294 143.51127  L 165.478867 122.07206  L 165.478867 122.07206  L 164.211938 122.07206  L 157.877294 139.223428  L 152.809579 130.647744  L 150.275721 104.920691  L 164.211938 104.920691  L 165.478867 100.632849  L 156.610365 66.330112  L 156.610365 66.330112  L 208.554448 66.330112  L 197.152088 104.920691  L 208.554448 143.51127  L 219.956808 104.920691  L 208.554448 66.330112  L 208.554448 66.330112  L 298.506396 66.330112  L 287.104037 104.920691  L 298.506396 143.51127  L 309.908756 104.920691  L 298.506396 66.330112  L 298.506396 66.330112  L 320.044187 66.330112  L 312.442614 70.617954  L 312.442614 74.905796  L 316.2434 83.48148  L 316.2434 130.647744  L 312.442614 139.223428  L 312.442614 143.51127  L 325.111902 143.51127  L 325.111902 139.223428  L 323.844973 139.223428  L 320.044187 130.647744  L 320.044187 100.632849  L 326.378831 70.617954  L 325.111902 79.193638  L 327.64576 83.48148  L 330.179617 79.193638  L 326.378831 66.330112  L 320.044187 83.48148  L 320.044187 66.330112  L 320.044187 66.330112  L 156.610365 70.617954  L 162.94501 100.632849  L 150.275721 100.632849  L 156.610365 70.617954  L 208.554448 70.617954  L 213.622163 79.193638  L 214.889092 104.920691  L 213.622163 126.359902  L 208.554448 139.223428  L 202.219804 130.647744  L 200.952875 104.920691  L 202.219804 79.193638  L 208.554448 70.617954  L 208.554448 70.617954  L 298.506396 70.617954  L 303.574112 79.193638  L 306.107969 104.920691  L 304.84104 126.359902  L 298.506396 139.223428  L 292.171752 130.647744  L 290.904823 104.920691  L 292.171752 79.193638  L 298.506396 70.617954  L 298.506396 70.617954  L 358.052052 70.617954  L 364.386696 79.193638  L 364.386696 130.647744  L 358.052052 139.223428  L 352.984337 130.647744  L 350.450479 104.920691  L 352.984337 83.48148  L 358.052052 70.617954  L 358.052052 70.617954  " style="fill:none;stroke:#0000ff;stroke-linecap:square;stroke-width:4.0;"/>
   </g>
   <g id="patch_3">
    <path d="M 57.789915 14.876006  L 374.522127 14.876006  " style="fill:none;stroke:#000000;stroke-linecap:square;stroke-linejoin:miter;"/>
   </g>
   <g id="patch_4">
    <path d="M 374.522127 164.950481  L 374.522127 14.876006  " style="fill:none;stroke:#000000;stroke-linecap:square;stroke-linejoin:miter;"/>
   </g>
   <g id="patch_5">
    <path d="M 57.789915 164.950481  L 374.522127 164.950481  " style="fill:none;stroke:#000000;stroke-linecap:square;stroke-linejoin:miter;"/>
   </g>
   <g id="patch_6">
    <path d="M 57.789915 164.950481  L 57.789915 14.876006  " style="fill:none;stroke:#000000;stroke-linecap:square;stroke-linejoin:miter;"/>
   </g>
   <g id="matplotlib.axis_1">
    <g id="xtick_1">
     <g id="line2d_2">
      <defs>
       <path d="M 0 0  L 0 -4  " id="m2bedca5880" style="stroke:#000000;stroke-width:0.5;"/>
      </defs>
      <g>
       <use style="stroke:#000000;stroke-width:0.5;" x="57.78991512" xlink:href="#m2bedca5880" y="164.9504808"/>
      </g>
     </g>
     <g id="line2d_3">
      <defs>
       <path d="M 0 0  L 0 4  " id="md4276c7aa0" style="stroke:#000000;stroke-width:0.5;"/>
      </defs>
      <g>
       <use style="stroke:#000000;stroke-width:0.5;" x="57.78991512" xlink:href="#md4276c7aa0" y="14.8760064"/>
      </g>
     </g>
     <g id="text_1">
      <!-- 50 -->
      <defs>
       <path d="M 31.78125 66.40625  Q 24.171875 66.40625 20.328125 58.90625  Q 16.5 51.421875 16.5 36.375  Q 16.5 21.390625 20.328125 13.890625  Q 24.171875 6.390625 31.78125 6.390625  Q 39.453125 6.390625 43.28125 13.890625  Q 47.125 21.390625 47.125 36.375  Q 47.125 51.421875 43.28125 58.90625  Q 39.453125 66.40625 31.78125 66.40625  M 31.78125 74.21875  Q 44.046875 74.21875 50.515625 64.515625  Q 56.984375 54.828125 56.984375 36.375  Q 56.984375 17.96875 50.515625 8.265625  Q 44.046875 -1.421875 31.78125 -1.421875  Q 19.53125 -1.421875 13.0625 8.265625  Q 6.59375 17.96875 6.59375 36.375  Q 6.59375 54.828125 13.0625 64.515625  Q 19.53125 74.21875 31.78125 74.21875  " id="BitstreamVeraSans-Roman-30"/>
       <path d="M 10.796875 72.90625  L 49.515625 72.90625  L 49.515625 64.59375  L 19.828125 64.59375  L 19.828125 46.734375  Q 21.96875 47.46875 24.109375 47.828125  Q 26.265625 48.1875 28.421875 48.1875  Q 40.625 48.1875 47.75 41.5  Q 54.890625 34.8125 54.890625 23.390625  Q 54.890625 11.625 47.5625 5.09375  Q 40.234375 -1.421875 26.90625 -1.421875  Q 22.3125 -1.421875 17.546875 -0.640625  Q 12.796875 0.140625 7.71875 1.703125  L 7.71875 11.625  Q 12.109375 9.234375 16.796875 8.0625  Q 21.484375 6.890625 26.703125 6.890625  Q 35.15625 6.890625 40.078125 11.328125  Q 45.015625 15.765625 45.015625 23.390625  Q 45.015625 31 40.078125 35.4375  Q 35.15625 39.890625 26.703125 39.890625  Q 22.75 39.890625 18.8125 39.015625  Q 14.890625 38.140625 10.796875 36.28125  z " id="BitstreamVeraSans-Roman-35"/>
      </defs>
      <g transform="translate(50.15491512 178.0686058)scale(0.12 -0.12)">
       <use xlink:href="#BitstreamVeraSans-Roman-35"/>
       <use x="63.623046875" xlink:href="#BitstreamVeraSans-Roman-30"/>
      </g>
     </g>
    </g>
    <g id="xtick_2">
     <g id="line2d_4">
      <g>
       <use style="stroke:#000000;stroke-width:0.5;" x="121.13635752" xlink:href="#m2bedca5880" y="164.9504808"/>
      </g>
     </g>
     <g id="line2d_5">
      <g>
       <use style="stroke:#000000;stroke-width:0.5;" x="121.13635752" xlink:href="#md4276c7aa0" y="14.8760064"/>
      </g>
     </g>
     <g id="text_2">
      <!-- 100 -->
      <defs>
       <path d="M 12.40625 8.296875  L 28.515625 8.296875  L 28.515625 63.921875  L 10.984375 60.40625  L 10.984375 69.390625  L 28.421875 72.90625  L 38.28125 72.90625  L 38.28125 8.296875  L 54.390625 8.296875  L 54.390625 0  L 12.40625 0  z " id="BitstreamVeraSans-Roman-31"/>
      </defs>
      <g transform="translate(109.68385752 178.0686058)scale(0.12 -0.12)">
       <use xlink:href="#BitstreamVeraSans-Roman-31"/>
       <use x="63.623046875" xlink:href="#BitstreamVeraSans-Roman-30"/>
       <use x="127.24609375" xlink:href="#BitstreamVeraSans-Roman-30"/>
      </g>
     </g>
    </g>
    <g id="xtick_3">
     <g id="line2d_6">
      <g>
       <use style="stroke:#000000;stroke-width:0.5;" x="184.48279992" xlink:href="#m2bedca5880" y="164.9504808"/>
      </g>
     </g>
     <g id="line2d_7">
      <g>
       <use style="stroke:#000000;stroke-width:0.5;" x="184.48279992" xlink:href="#md4276c7aa0" y="14.8760064"/>
      </g>
     </g>
     <g id="text_3">
      <!-- 150 -->
      <g transform="translate(173.03029992 178.0686058)scale(0.12 -0.12)">
       <use xlink:href="#BitstreamVeraSans-Roman-31"/>
       <use x="63.623046875" xlink:href="#BitstreamVeraSans-Roman-35"/>
       <use x="127.24609375" xlink:href="#BitstreamVeraSans-Roman-30"/>
      </g>
     </g>
    </g>
    <g id="xtick_4">
     <g id="line2d_8">
      <g>
       <use style="stroke:#000000;stroke-width:0.5;" x="247.82924232" xlink:href="#m2bedca5880" y="164.9504808"/>
      </g>
     </g>
     <g id="line2d_9">
      <g>
       <use style="stroke:#000000;stroke-width:0.5;" x="247.82924232" xlink:href="#md4276c7aa0" y="14.8760064"/>
      </g>
     </g>
     <g id="text_4">
      <!-- 200 -->
      <defs>
       <path d="M 19.1875 8.296875  L 53.609375 8.296875  L 53.609375 0  L 7.328125 0  L 7.328125 8.296875  Q 12.9375 14.109375 22.625 23.890625  Q 32.328125 33.6875 34.8125 36.53125  Q 39.546875 41.84375 41.421875 45.53125  Q 43.3125 49.21875 43.3125 52.78125  Q 43.3125 58.59375 39.234375 62.25  Q 35.15625 65.921875 28.609375 65.921875  Q 23.96875 65.921875 18.8125 64.3125  Q 13.671875 62.703125 7.8125 59.421875  L 7.8125 69.390625  Q 13.765625 71.78125 18.9375 73  Q 24.125 74.21875 28.421875 74.21875  Q 39.75 74.21875 46.484375 68.546875  Q 53.21875 62.890625 53.21875 53.421875  Q 53.21875 48.921875 51.53125 44.890625  Q 49.859375 40.875 45.40625 35.40625  Q 44.1875 33.984375 37.640625 27.21875  Q 31.109375 20.453125 19.1875 8.296875  " id="BitstreamVeraSans-Roman-32"/>
      </defs>
      <g transform="translate(236.37674232 178.0686058)scale(0.12 -0.12)">
       <use xlink:href="#BitstreamVeraSans-Roman-32"/>
       <use x="63.623046875" xlink:href="#BitstreamVeraSans-Roman-30"/>
       <use x="127.24609375" xlink:href="#BitstreamVeraSans-Roman-30"/>
      </g>
     </g>
    </g>
    <g id="xtick_5">
     <g id="line2d_10">
      <g>
       <use style="stroke:#000000;stroke-width:0.5;" x="311.17568472" xlink:href="#m2bedca5880" y="164.9504808"/>
      </g>
     </g>
     <g id="line2d_11">
      <g>
       <use style="stroke:#000000;stroke-width:0.5;" x="311.17568472" xlink:href="#md4276c7aa0" y="14.8760064"/>
      </g>
     </g>
     <g id="text_5">
      <!-- 250 -->
      <g transform="translate(299.72318472 178.0686058)scale(0.12 -0.12)">
       <use xlink:href="#BitstreamVeraSans-Roman-32"/>
       <use x="63.623046875" xlink:href="#BitstreamVeraSans-Roman-35"/>
       <use x="127.24609375" xlink:href="#BitstreamVeraSans-Roman-30"/>
      </g>
     </g>
    </g>
    <g id="xtick_6">
     <g id="line2d_12">
      <g>
       <use style="stroke:#000000;stroke-width:0.5;" x="374.52212712" xlink:href="#m2bedca5880" y="164.9504808"/>
      </g>
     </g>
     <g id="line2d_13">
      <g>
       <use style="stroke:#000000;stroke-width:0.5;" x="374.52212712" xlink:href="#md4276c7aa0" y="14.8760064"/>
      </g>
     </g>
     <g id="text_6">
      <!-- 300 -->
      <defs>
       <path d="M 40.578125 39.3125  Q 47.65625 37.796875 51.625 33  Q 55.609375 28.21875 55.609375 21.1875  Q 55.609375 10.40625 48.1875 4.484375  Q 40.765625 -1.421875 27.09375 -1.421875  Q 22.515625 -1.421875 17.65625 -0.515625  Q 12.796875 0.390625 7.625 2.203125  L 7.625 11.71875  Q 11.71875 9.328125 16.59375 8.109375  Q 21.484375 6.890625 26.8125 6.890625  Q 36.078125 6.890625 40.9375 10.546875  Q 45.796875 14.203125 45.796875 21.1875  Q 45.796875 27.640625 41.28125 31.265625  Q 36.765625 34.90625 28.71875 34.90625  L 20.21875 34.90625  L 20.21875 43.015625  L 29.109375 43.015625  Q 36.375 43.015625 40.234375 45.921875  Q 44.09375 48.828125 44.09375 54.296875  Q 44.09375 59.90625 40.109375 62.90625  Q 36.140625 65.921875 28.71875 65.921875  Q 24.65625 65.921875 20.015625 65.03125  Q 15.375 64.15625 9.8125 62.3125  L 9.8125 71.09375  Q 15.4375 72.65625 20.34375 73.4375  Q 25.25 74.21875 29.59375 74.21875  Q 40.828125 74.21875 47.359375 69.109375  Q 53.90625 64.015625 53.90625 55.328125  Q 53.90625 49.265625 50.4375 45.09375  Q 46.96875 40.921875 40.578125 39.3125  " id="BitstreamVeraSans-Roman-33"/>
      </defs>
      <g transform="translate(363.06962712 178.0686058)scale(0.12 -0.12)">
       <use xlink:href="#BitstreamVeraSans-Roman-33"/>
       <use x="63.623046875" xlink:href="#BitstreamVeraSans-Roman-30"/>
       <use x="127.24609375" xlink:href="#BitstreamVeraSans-Roman-30"/>
      </g>
     </g>
    </g>
   </g>
   <g id="matplotlib.axis_2">
    <g id="ytick_1">
     <g id="line2d_14">
      <defs>
       <path d="M 0 0  L 4 0  " id="m3eca47fd5d" style="stroke:#000000;stroke-width:0.5;"/>
      </defs>
      <g>
       <use style="stroke:#000000;stroke-width:0.5;" x="57.78991512" xlink:href="#m3eca47fd5d" y="164.9504808"/>
      </g>
     </g>
     <g id="line2d_15">
      <defs>
       <path d="M 0 0  L -4 0  " id="m18ae907e91" style="stroke:#000000;stroke-width:0.5;"/>
      </defs>
      <g>
       <use style="stroke:#000000;stroke-width:0.5;" x="374.52212712" xlink:href="#m18ae907e91" y="164.9504808"/>
      </g>
     </g>
     <g id="text_7">
      <!-- &#8722;90 -->
      <defs>
       <path d="M 10.59375 35.5  L 73.1875 35.5  L 73.1875 27.203125  L 10.59375 27.203125  z " id="BitstreamVeraSans-Roman-2212"/>
       <path d="M 10.984375 1.515625  L 10.984375 10.5  Q 14.703125 8.734375 18.5 7.8125  Q 22.3125 6.890625 25.984375 6.890625  Q 35.75 6.890625 40.890625 13.453125  Q 46.046875 20.015625 46.78125 33.40625  Q 43.953125 29.203125 39.59375 26.953125  Q 35.25 24.703125 29.984375 24.703125  Q 19.046875 24.703125 12.671875 31.3125  Q 6.296875 37.9375 6.296875 49.421875  Q 6.296875 60.640625 12.9375 67.421875  Q 19.578125 74.21875 30.609375 74.21875  Q 43.265625 74.21875 49.921875 64.515625  Q 56.59375 54.828125 56.59375 36.375  Q 56.59375 19.140625 48.40625 8.859375  Q 40.234375 -1.421875 26.421875 -1.421875  Q 22.703125 -1.421875 18.890625 -0.6875  Q 15.09375 0.046875 10.984375 1.515625  M 30.609375 32.421875  Q 37.25 32.421875 41.125 36.953125  Q 45.015625 41.5 45.015625 49.421875  Q 45.015625 57.28125 41.125 61.84375  Q 37.25 66.40625 30.609375 66.40625  Q 23.96875 66.40625 20.09375 61.84375  Q 16.21875 57.28125 16.21875 49.421875  Q 16.21875 41.5 20.09375 36.953125  Q 23.96875 32.421875 30.609375 32.421875  " id="BitstreamVeraSans-Roman-39"/>
      </defs>
      <g transform="translate(28.46429012 168.2617308)scale(0.12 -0.12)">
       <use xlink:href="#BitstreamVeraSans-Roman-2212"/>
       <use x="83.7890625" xlink:href="#BitstreamVeraSans-Roman-39"/>
       <use x="147.412109375" xlink:href="#BitstreamVeraSans-Roman-30"/>
      </g>
     </g>
    </g>
    <g id="ytick_2">
     <g id="line2d_16">
      <g>
       <use style="stroke:#000000;stroke-width:0.5;" x="57.78991512" xlink:href="#m3eca47fd5d" y="143.511270171"/>
      </g>
     </g>
     <g id="line2d_17">
      <g>
       <use style="stroke:#000000;stroke-width:0.5;" x="374.52212712" xlink:href="#m18ae907e91" y="143.511270171"/>
      </g>
     </g>
     <g id="text_8">
      <!-- &#8722;85 -->
      <defs>
       <path d="M 31.78125 34.625  Q 24.75 34.625 20.71875 30.859375  Q 16.703125 27.09375 16.703125 20.515625  Q 16.703125 13.921875 20.71875 10.15625  Q 24.75 6.390625 31.78125 6.390625  Q 38.8125 6.390625 42.859375 10.171875  Q 46.921875 13.96875 46.921875 20.515625  Q 46.921875 27.09375 42.890625 30.859375  Q 38.875 34.625 31.78125 34.625  M 21.921875 38.8125  Q 15.578125 40.375 12.03125 44.71875  Q 8.5 49.078125 8.5 55.328125  Q 8.5 64.0625 14.71875 69.140625  Q 20.953125 74.21875 31.78125 74.21875  Q 42.671875 74.21875 48.875 69.140625  Q 55.078125 64.0625 55.078125 55.328125  Q 55.078125 49.078125 51.53125 44.71875  Q 48 40.375 41.703125 38.8125  Q 48.828125 37.15625 52.796875 32.3125  Q 56.78125 27.484375 56.78125 20.515625  Q 56.78125 9.90625 50.3125 4.234375  Q 43.84375 -1.421875 31.78125 -1.421875  Q 19.734375 -1.421875 13.25 4.234375  Q 6.78125 9.90625 6.78125 20.515625  Q 6.78125 27.484375 10.78125 32.3125  Q 14.796875 37.15625 21.921875 38.8125  M 18.3125 54.390625  Q 18.3125 48.734375 21.84375 45.5625  Q 25.390625 42.390625 31.78125 42.390625  Q 38.140625 42.390625 41.71875 45.5625  Q 45.3125 48.734375 45.3125 54.390625  Q 45.3125 60.0625 41.71875 63.234375  Q 38.140625 66.40625 31.78125 66.40625  Q 25.390625 66.40625 21.84375 63.234375  Q 18.3125 60.0625 18.3125 54.390625  " id="BitstreamVeraSans-Roman-38"/>
      </defs>
      <g transform="translate(28.46429012 146.822520171)scale(0.12 -0.12)">
       <use xlink:href="#BitstreamVeraSans-Roman-2212"/>
       <use x="83.7890625" xlink:href="#BitstreamVeraSans-Roman-38"/>
       <use x="147.412109375" xlink:href="#BitstreamVeraSans-Roman-35"/>
      </g>
     </g>
    </g>
    <g id="ytick_3">
     <g id="line2d_18">
      <g>
       <use style="stroke:#000000;stroke-width:0.5;" x="57.78991512" xlink:href="#m3eca47fd5d" y="122.072059543"/>
      </g>
     </g>
     <g id="line2d_19">
      <g>
       <use style="stroke:#000000;stroke-width:0.5;" x="374.52212712" xlink:href="#m18ae907e91" y="122.072059543"/>
      </g>
     </g>
     <g id="text_9">
      <!-- &#8722;80 -->
      <g transform="translate(28.46429012 125.383309543)scale(0.12 -0.12)">
       <use xlink:href="#BitstreamVeraSans-Roman-2212"/>
       <use x="83.7890625" xlink:href="#BitstreamVeraSans-Roman-38"/>
       <use x="147.412109375" xlink:href="#BitstreamVeraSans-Roman-30"/>
      </g>
     </g>
    </g>
    <g id="ytick_4">
     <g id="line2d_20">
      <g>
       <use style="stroke:#000000;stroke-width:0.5;" x="57.78991512" xlink:href="#m3eca47fd5d" y="100.632848914"/>
      </g>
     </g>
     <g id="line2d_21">
      <g>
       <use style="stroke:#000000;stroke-width:0.5;" x="374.52212712" xlink:href="#m18ae907e91" y="100.632848914"/>
      </g>
     </g>
     <g id="text_10">
      <!-- &#8722;75 -->
      <defs>
       <path d="M 8.203125 72.90625  L 55.078125 72.90625  L 55.078125 68.703125  L 28.609375 0  L 18.3125 0  L 43.21875 64.59375  L 8.203125 64.59375  z " id="BitstreamVeraSans-Roman-37"/>
      </defs>
      <g transform="translate(28.46429012 103.944098914)scale(0.12 -0.12)">
       <use xlink:href="#BitstreamVeraSans-Roman-2212"/>
       <use x="83.7890625" xlink:href="#BitstreamVeraSans-Roman-37"/>
       <use x="147.412109375" xlink:href="#BitstreamVeraSans-Roman-35"/>
      </g>
     </g>
    </g>
    <g id="ytick_5">
     <g id="line2d_22">
      <g>
       <use style="stroke:#000000;stroke-width:0.5;" x="57.78991512" xlink:href="#m3eca47fd5d" y="79.1936382857"/>
      </g>
     </g>
     <g id="line2d_23">
      <g>
       <use style="stroke:#000000;stroke-width:0.5;" x="374.52212712" xlink:href="#m18ae907e91" y="79.1936382857"/>
      </g>
     </g>
     <g id="text_11">
      <!-- &#8722;70 -->
      <g transform="translate(28.46429012 82.5048882857)scale(0.12 -0.12)">
       <use xlink:href="#BitstreamVeraSans-Roman-2212"/>
       <use x="83.7890625" xlink:href="#BitstreamVeraSans-Roman-37"/>
       <use x="147.412109375" xlink:href="#BitstreamVeraSans-Roman-30"/>
      </g>
     </g>
    </g>
    <g id="ytick_6">
     <g id="line2d_24">
      <g>
       <use style="stroke:#000000;stroke-width:0.5;" x="57.78991512" xlink:href="#m3eca47fd5d" y="57.7544276571"/>
      </g>
     </g>
     <g id="line2d_25">
      <g>
       <use style="stroke:#000000;stroke-width:0.5;" x="374.52212712" xlink:href="#m18ae907e91" y="57.7544276571"/>
      </g>
     </g>
     <g id="text_12">
      <!-- &#8722;65 -->
      <defs>
       <path d="M 33.015625 40.375  Q 26.375 40.375 22.484375 35.828125  Q 18.609375 31.296875 18.609375 23.390625  Q 18.609375 15.53125 22.484375 10.953125  Q 26.375 6.390625 33.015625 6.390625  Q 39.65625 6.390625 43.53125 10.953125  Q 47.40625 15.53125 47.40625 23.390625  Q 47.40625 31.296875 43.53125 35.828125  Q 39.65625 40.375 33.015625 40.375  M 52.59375 71.296875  L 52.59375 62.3125  Q 48.875 64.0625 45.09375 64.984375  Q 41.3125 65.921875 37.59375 65.921875  Q 27.828125 65.921875 22.671875 59.328125  Q 17.53125 52.734375 16.796875 39.40625  Q 19.671875 43.65625 24.015625 45.921875  Q 28.375 48.1875 33.59375 48.1875  Q 44.578125 48.1875 50.953125 41.515625  Q 57.328125 34.859375 57.328125 23.390625  Q 57.328125 12.15625 50.6875 5.359375  Q 44.046875 -1.421875 33.015625 -1.421875  Q 20.359375 -1.421875 13.671875 8.265625  Q 6.984375 17.96875 6.984375 36.375  Q 6.984375 53.65625 15.1875 63.9375  Q 23.390625 74.21875 37.203125 74.21875  Q 40.921875 74.21875 44.703125 73.484375  Q 48.484375 72.75 52.59375 71.296875  " id="BitstreamVeraSans-Roman-36"/>
      </defs>
      <g transform="translate(28.46429012 61.0656776571)scale(0.12 -0.12)">
       <use xlink:href="#BitstreamVeraSans-Roman-2212"/>
       <use x="83.7890625" xlink:href="#BitstreamVeraSans-Roman-36"/>
       <use x="147.412109375" xlink:href="#BitstreamVeraSans-Roman-35"/>
      </g>
     </g>
    </g>
    <g id="ytick_7">
     <g id="line2d_26">
      <g>
       <use style="stroke:#000000;stroke-width:0.5;" x="57.78991512" xlink:href="#m3eca47fd5d" y="36.3152170286"/>
      </g>
     </g>
     <g id="line2d_27">
      <g>
       <use style="stroke:#000000;stroke-width:0.5;" x="374.52212712" xlink:href="#m18ae907e91" y="36.3152170286"/>
      </g>
     </g>
     <g id="text_13">
      <!-- &#8722;60 -->
      <g transform="translate(28.46429012 39.6264670286)scale(0.12 -0.12)">
       <use xlink:href="#BitstreamVeraSans-Roman-2212"/>
       <use x="83.7890625" xlink:href="#BitstreamVeraSans-Roman-36"/>
       <use x="147.412109375" xlink:href="#BitstreamVeraSans-Roman-30"/>
      </g>
     </g>
    </g>
    <g id="ytick_8">
     <g id="line2d_28">
      <g>
       <use style="stroke:#000000;stroke-width:0.5;" x="57.78991512" xlink:href="#m3eca47fd5d" y="14.8760064"/>
      </g>
     </g>
     <g id="line2d_29">
      <g>
       <use style="stroke:#000000;stroke-width:0.5;" x="374.52212712" xlink:href="#m18ae907e91" y="14.8760064"/>
      </g>
     </g>
     <g id="text_14">
      <!-- &#8722;55 -->
      <g transform="translate(28.46429012 18.1872564)scale(0.12 -0.12)">
       <use xlink:href="#BitstreamVeraSans-Roman-2212"/>
       <use x="83.7890625" xlink:href="#BitstreamVeraSans-Roman-35"/>
       <use x="147.412109375" xlink:href="#BitstreamVeraSans-Roman-35"/>
      </g>
     </g>
    </g>
   </g>
  </g>
 </g>
 <defs>
  <clipPath id="p7529ce099d">
   <rect height="150.0744744" width="316.732212" x="57.78991512" y="14.8760064"/>
  </clipPath>
 </defs>
</g>
  <g id="layer3" inkscape:groupmode="layer" inkscape:label="Labels" style="display:inline" transform="translate(0,-500.00001)">
    <text id="text4155" sodipodi:linespacing="125%" style="font-style:normal;font-weight:normal;font-size:44.44444275px;line-height:125%;font-family:sans-serif;letter-spacing:0px;word-spacing:0px;fill:#000000;fill-opacity:1;stroke:none;stroke-width:1px;stroke-linecap:butt;stroke-linejoin:miter;stroke-opacity:1" x="140.02818" xml:space="preserve" y="773.50824"><tspan id="tspan4157" sodipodi:role="line" style="font-size:25px;fill:#7c7c7c;fill-opacity:1" x="140.02818" y="773.50824">Constructed by FigureFirst</tspan></text>
  </g>
</svg>