<?xml version="1.0" encoding="utf-8"?><!-- Created with Inkscape (http://www.inkscape.org/) --><svg height="3in" id="svg2" inkscape:version="0.91 r13725" sodipodi:docname="hello_world_layout.svg" version="1.1" viewBox="0 0 600 300" width="6in" xmlns="http://www.w3.org/2000/svg" xmlns:cc="http://creativecommons.org/ns#" xmlns:dc="http://purl.org/dc/elements/1.1/" xmlns:figurefirst="http://flyranch.github.io/figurefirst/" xmlns:inkscape="http://www.inkscape.org/namespaces/inkscape" xmlns:rdf="http://www.w3.org/1999/02/22-rdf-syntax-ns#" xmlns:sodipodi="http://sodipodi.sourceforge.net/DTD/sodipodi-0.dtd" xmlns:svg="http://www.w3.org/2000/svg" xmlns:xlink="http://www.w3.org/1999/xlink">
  <defs id="defs4"/>
  <sodipodi:namedview bordercolor="#666666" borderopacity="1.0" id="base" inkscape:current-layer="svg2" inkscape:cx="101.05108" inkscape:cy="-27.611916" inkscape:document-units="in" inkscape:guide-bbox="true" inkscape:pageopacity="0.0" inkscape:pageshadow="2" inkscape:window-height="1026" inkscape:window-maximized="1" inkscape:window-width="1615" inkscape:window-x="1985" inkscape:window-y="24" inkscape:zoom="0.88077518" pagecolor="#ffffff" showgrid="false" showguides="false" units="in"/>
  <metadata id="metadata7">
    <rdf:RDF>
      <cc:Work rdf:about="">
        <dc:format>image/svg+xml</dc:format>
        <dc:type rdf:resource="http://purl.org/dc/dcmitype/StillImage"/>
        <dc:title/>
      </cc:Work>
    </rdf:RDF>
  </metadata>
  <g id="layer1" inkscape:groupmode="layer" inkscape:label="Layer 1" style="display:inline" transform="translate(0,-500.00001)">
    <rect height="208.43677" id="rect3205" style="opacity:0.23699999;fill:#0000ff;fill-rule:evenodd;stroke:none;stroke-width:10;stroke-linecap:butt;stroke-linejoin:miter;stroke-miterlimit:4;stroke-dasharray:none;stroke-opacity:1" width="439.90585" x="80.263771" y="520.66113">
      <figurefirst:axis figurefirst:name="ax_name"/>
    </rect>
  </g>
  <g id="layer2" inkscape:groupmode="layer" inkscape:label="Layer 2" style="display:inline" transform="scale(1.38888888889,1.38888888889)">
    <figurefirst:targetlayer figurefirst:name="target_layer_name"/>
  
 <defs>
  <style type="text/css">
*{stroke-linecap:butt;stroke-linejoin:round;stroke-miterlimit:100000;}
  </style>
 </defs>
 <g id="figure_1">
  <g id="patch_1">
   <path d="M 0 216  L 432 216  L 432 0  L 0 0  L 0 216  z " style="fill:none;"/>
  </g>
  <g id="axes_1">
   <g id="patch_2">
    <path d="M 57.789915 164.950481  L 374.522127 164.950481  L 374.522127 14.876006  L 57.789915 14.876006  L 57.789915 164.950481  z " style="fill:none;"/>
   </g>
   <g id="line2d_1">
    <path clip-path="url(#p8f0f8714bf)" d="M 176.881227 23.451691  L 169.279654 23.451691  L 169.279654 32.027375  L 173.08044 40.603059  L 173.08044 130.647744  L 169.279654 139.223428  L 169.279654 143.51127  L 180.682013 143.51127  L 180.682013 139.223428  L 176.881227 130.647744  L 176.881227 23.451691  L 176.881227 23.451691  L 190.817444 23.451691  L 183.215871 23.451691  L 183.215871 32.027375  L 187.016658 40.603059  L 187.016658 130.647744  L 183.215871 139.223428  L 183.215871 143.51127  L 194.618231 143.51127  L 194.618231 139.223428  L 190.817444 130.647744  L 190.817444 23.451691  L 190.817444 23.451691  L 340.315048 23.451691  L 332.713475 23.451691  L 332.713475 32.027375  L 336.514262 40.603059  L 336.514262 130.647744  L 332.713475 139.223428  L 332.713475 143.51127  L 344.115835 143.51127  L 344.115835 139.223428  L 340.315048 130.647744  L 340.315048 23.451691  L 340.315048 23.451691  L 368.187483 23.451691  L 360.58591 23.451691  L 360.58591 32.027375  L 364.386696 40.603059  L 364.386696 79.193638  L 358.052052 66.330112  L 346.649692 104.920691  L 358.052052 143.51127  L 364.386696 134.935586  L 364.386696 143.51127  L 371.988269 143.51127  L 371.988269 139.223428  L 368.187483 126.359902  L 368.187483 23.451691  L 368.187483 23.451691  L 108.467069 23.451691  L 108.467069 32.027375  L 109.733998 32.027375  L 113.534784 40.603059  L 113.534784 130.647744  L 109.733998 139.223428  L 108.467069 139.223428  L 108.467069 143.51127  L 123.670215 143.51127  L 123.670215 139.223428  L 122.403286 139.223428  L 118.6025 130.647744  L 118.6025 83.48148  L 133.805646 83.48148  L 133.805646 130.647744  L 130.004859 139.223428  L 128.737931 139.223428  L 128.737931 143.51127  L 143.941077 143.51127  L 143.941077 139.223428  L 142.674148 139.223428  L 137.606433 130.647744  L 137.606433 40.603059  L 142.674148 32.027375  L 143.941077 32.027375  L 143.941077 23.451691  L 136.339504 27.739533  L 128.737931 23.451691  L 128.737931 32.027375  L 130.004859 32.027375  L 133.805646 40.603059  L 133.805646 79.193638  L 118.6025 79.193638  L 118.6025 40.603059  L 122.403286 32.027375  L 123.670215 32.027375  L 123.670215 23.451691  L 116.068642 27.739533  L 108.467069 23.451691  L 108.467069 23.451691  L 238.96074 23.451691  L 238.96074 32.027375  L 244.028456 36.315217  L 254.163887 143.51127  L 254.163887 147.799112  L 255.430815 143.51127  L 264.299317 57.754428  L 271.90089 143.51127  L 273.167819 147.799112  L 274.434748 143.51127  L 284.570179 40.603059  L 289.637894 32.027375  L 289.637894 23.451691  L 284.570179 27.739533  L 278.235535 23.451691  L 278.235535 32.027375  L 283.30325 40.603059  L 282.036321 44.890901  L 274.434748 122.07206  L 266.833175 36.315217  L 266.833175 36.315217  L 270.633962 32.027375  L 270.633962 23.451691  L 264.299317 27.739533  L 257.964673 23.451691  L 257.964673 32.027375  L 261.76546 36.315217  L 263.032388 49.178743  L 256.697744 122.07206  L 247.829242 36.315217  L 247.829242 36.315217  L 251.630029 32.027375  L 251.630029 23.451691  L 245.295385 27.739533  L 238.96074 23.451691  L 238.96074 23.451691  L 156.610365 66.330112  L 146.474934 104.920691  L 157.877294 143.51127  L 165.478867 122.07206  L 165.478867 122.07206  L 164.211938 122.07206  L 157.877294 139.223428  L 152.809579 130.647744  L 150.275721 104.920691  L 164.211938 104.920691  L 165.478867 100.632849  L 156.610365 66.330112  L 156.610365 66.330112  L 208.554448 66.330112  L 197.152088 104.920691  L 208.554448 143.51127  L 219.956808 104.920691  L 208.554448 66.330112  L 208.554448 66.330112  L 298.506396 66.330112  L 287.104037 104.920691  L 298.506396 143.51127  L 309.908756 104.920691  L 298.506396 66.330112  L 298.506396 66.330112  L 320.044187 66.330112  L 312.442614 70.617954  L 312.442614 74.905796  L 316.2434 83.48148  L 316.2434 130.647744  L 312.442614 139.223428  L 312.442614 143.51127  L 325.111902 143.51127  L 325.111902 139.223428  L 323.844973 139.223428  L 320.044187 130.647744  L 320.044187 100.632849  L 326.378831 70.617954  L 325.111902 79.193638  L 327.64576 83.48148  L 330.179617 79.193638  L 326.378831 66.330112  L 320.044187 83.48148  L 320.044187 66.330112  L 320.044187 66.330112  L 156.610365 70.617954  L 162.94501 100.632849  L 150.275721 100.632849  L 156.610365 70.617954  L 208.554448 70.617954  L 213.622163 79.193638  L 214.889092 104.920691  L 213.622163 126.359902  L 208.554448 139.223428  L 202.219804 130.647744  L 200.952875 104.920691  L 202.219804 79.193638  L 208.554448 70.617954  L 208.554448 70.617954  L 298.506396 70.617954  L 303.574112 79.193638  L 306.107969 104.920691  L 304.84104 126.359902  L 298.506396 139.223428  L 292.171752 130.647744  L 290.904823 104.920691  L 292.171752 79.193638  L 298.506396 70.617954  L 298.506396 70.617954  L 358.052052 70.617954  L 364.386696 79.193638  L 364.386696 130.647744  L 358.052052 139.223428  L 352.984337 130.647744  L 350.450479 104.920691  L 352.984337 83.48148  L 358.052052 70.617954  L 358.052052 70.617954  " style="fill:none;stroke:#000000;stroke-linecap:square;stroke-width:4.0;"/>
   </g>
   <g id="patch_3">
    <path d="M 57.789915 14.876006  L 374.522127 14.876006  " style="fill:none;stroke:#000000;stroke-linecap:square;stroke-linejoin:miter;"/>
   </g>
   <g id="patch_4">
    <path d="M 374.522127 164.950481  L 374.522127 14.876006  " style="fill:none;stroke:#000000;stroke-linecap:square;stroke-linejoin:miter;"/>
   </g>
   <g id="patch_5">
    <path d="M 57.789915 164.950481  L 374.522127 164.950481  " style="fill:none;stroke:#000000;stroke-linecap:square;stroke-linejoin:miter;"/>
   </g>
   <g id="patch_6">
    <path d="M 57.789915 164.950481  L 57.789915 14.876006  " style="fill:none;stroke:#000000;stroke-linecap:square;stroke-linejoin:miter;"/>
   </g>
   <g id="matplotlib.axis_1">
    <g id="xtick_1">
     <g id="line2d_2">
      <defs>
       <path d="M 0 0  L 0 -3  " id="m655f077f77" style="stroke:#000000;"/>
      </defs>
      <g>
       <use style="stroke:#000000;" x="57.78991512" xlink:href="#m655f077f77" y="164.9504808"/>
      </g>
     </g>
     <g id="line2d_3">
      <defs>
       <path d="M 0 0  L 0 3  " id="m79b2d106c6" style="stroke:#000000;"/>
      </defs>
      <g>
       <use style="stroke:#000000;" x="57.78991512" xlink:href="#m79b2d106c6" y="14.8760064"/>
      </g>
     </g>
     <g id="text_1">
      <!-- 50 -->
      <defs>
       <path d="M 4.296875 34.296875  C 4.296875 10.40625 12.296875 -2.296875 27.5 -2.296875  C 42.5 -2.296875 50.703125 10.40625 50.703125 33.703125  C 50.703125 54.296875 45.09375 70.90625 27.5 70.90625  C 17.59375 70.90625 4.296875 65.40625 4.296875 34.296875  M 27.5 63.09375  C 37 63.09375 41.703125 53.5 41.703125 34.5  C 41.703125 14.40625 37.09375 5 27.296875 5  C 18 5 13.296875 14.796875 13.296875 34.203125  C 13.296875 53.59375 18 63.09375 27.5 63.09375  " id="FreeSans-30"/>
       <path d="M 47.59375 70.90625  L 11 70.90625  L 5.703125 32.296875  L 13.796875 32.296875  C 17.90625 37.203125 21.296875 38.90625 26.796875 38.90625  C 36.296875 38.90625 42.296875 32.40625 42.296875 21.90625  C 42.296875 11.703125 36.40625 5.5 26.796875 5.5  C 19.09375 5.5 14.40625 9.40625 12.296875 17.40625  L 3.5 17.40625  C 4.40625 12.796875 7 -2.296875 27 -2.296875  C 41.296875 -2.296875 51.296875 8.09375 51.296875 23.09375  C 51.296875 37.09375 42 46.703125 28.40625 46.703125  C 23.40625 46.703125 19.40625 45.40625 15.296875 42.40625  L 18.09375 62.203125  L 47.59375 62.203125  z " id="FreeSans-35"/>
      </defs>
      <g transform="translate(51.11866512 177.6992308)scale(0.12 -0.12)">
       <use xlink:href="#FreeSans-35"/>
       <use x="55.5999908447" xlink:href="#FreeSans-30"/>
      </g>
     </g>
    </g>
    <g id="xtick_2">
     <g id="line2d_4">
      <g>
       <use style="stroke:#000000;" x="121.13635752" xlink:href="#m655f077f77" y="164.9504808"/>
      </g>
     </g>
     <g id="line2d_5">
      <g>
       <use style="stroke:#000000;" x="121.13635752" xlink:href="#m79b2d106c6" y="14.8760064"/>
      </g>
     </g>
     <g id="text_2">
      <!-- 100 -->
      <defs>
       <path d="M 25.90625 50.5  L 25.90625 0  L 34.703125 0  L 34.703125 70.90625  L 28.90625 70.90625  C 25.796875 60 23.796875 58.5 10.203125 56.796875  L 10.203125 50.5  z " id="FreeSans-31"/>
      </defs>
      <g transform="translate(111.12948252 177.6992308)scale(0.12 -0.12)">
       <use xlink:href="#FreeSans-31"/>
       <use x="55.5999908447" xlink:href="#FreeSans-30"/>
       <use x="111.199981689" xlink:href="#FreeSans-30"/>
      </g>
     </g>
    </g>
    <g id="xtick_3">
     <g id="line2d_6">
      <g>
       <use style="stroke:#000000;" x="184.48279992" xlink:href="#m655f077f77" y="164.9504808"/>
      </g>
     </g>
     <g id="line2d_7">
      <g>
       <use style="stroke:#000000;" x="184.48279992" xlink:href="#m79b2d106c6" y="14.8760064"/>
      </g>
     </g>
     <g id="text_3">
      <!-- 150 -->
      <g transform="translate(174.47592492 177.6992308)scale(0.12 -0.12)">
       <use xlink:href="#FreeSans-31"/>
       <use x="55.5999908447" xlink:href="#FreeSans-35"/>
       <use x="111.199981689" xlink:href="#FreeSans-30"/>
      </g>
     </g>
    </g>
    <g id="xtick_4">
     <g id="line2d_8">
      <g>
       <use style="stroke:#000000;" x="247.82924232" xlink:href="#m655f077f77" y="164.9504808"/>
      </g>
     </g>
     <g id="line2d_9">
      <g>
       <use style="stroke:#000000;" x="247.82924232" xlink:href="#m79b2d106c6" y="14.8760064"/>
      </g>
     </g>
     <g id="text_4">
      <!-- 200 -->
      <defs>
       <path d="M 5 46.296875  L 13.796875 46.296875  C 14.203125 52.90625 15.90625 63.203125 28.09375 63.203125  C 36.09375 63.203125 42.09375 57.5 42.09375 49.90625  C 42.09375 44.296875 38.796875 39.5 32.5 35.90625  L 23.296875 30.703125  C 8.5 22.296875 4.203125 15.59375 3.40625 0  L 50.59375 0  L 50.59375 8.703125  L 13.296875 8.703125  C 14.203125 14.5 17.203125 18.5 26.09375 23.296875  L 36.09375 28.703125  C 46 34.09375 51.09375 41.40625 51.09375 50.09375  C 51.09375 62.40625 41.796875 70.90625 28.40625 70.90625  C 18.703125 70.90625 5.59375 67.703125 5 46.296875  " id="FreeSans-32"/>
      </defs>
      <g transform="translate(237.82236732 177.6992308)scale(0.12 -0.12)">
       <use xlink:href="#FreeSans-32"/>
       <use x="55.5999908447" xlink:href="#FreeSans-30"/>
       <use x="111.199981689" xlink:href="#FreeSans-30"/>
      </g>
     </g>
    </g>
    <g id="xtick_5">
     <g id="line2d_10">
      <g>
       <use style="stroke:#000000;" x="311.17568472" xlink:href="#m655f077f77" y="164.9504808"/>
      </g>
     </g>
     <g id="line2d_11">
      <g>
       <use style="stroke:#000000;" x="311.17568472" xlink:href="#m79b2d106c6" y="14.8760064"/>
      </g>
     </g>
     <g id="text_5">
      <!-- 250 -->
      <g transform="translate(301.16880972 177.6992308)scale(0.12 -0.12)">
       <use xlink:href="#FreeSans-32"/>
       <use x="55.5999908447" xlink:href="#FreeSans-35"/>
       <use x="111.199981689" xlink:href="#FreeSans-30"/>
      </g>
     </g>
    </g>
    <g id="xtick_6">
     <g id="line2d_12">
      <g>
       <use style="stroke:#000000;" x="374.52212712" xlink:href="#m655f077f77" y="164.9504808"/>
      </g>
     </g>
     <g id="line2d_13">
      <g>
       <use style="stroke:#000000;" x="374.52212712" xlink:href="#m79b2d106c6" y="14.8760064"/>
      </g>
     </g>
     <g id="text_6">
      <!-- 300 -->
      <defs>
       <path d="M 27 63.203125  C 34.796875 63.203125 39.5 58.59375 39.5 51.09375  C 39.5 41.90625 33.796875 40.203125 22.09375 40  L 22.09375 32.5  L 23.203125 32.5  L 26.90625 32.59375  C 36.59375 32.59375 41.59375 28.203125 41.59375 19.703125  C 41.59375 10.796875 36.09375 5.5 26.90625 5.5  C 17.296875 5.5 12.59375 10.296875 12 20.59375  L 3.203125 20.59375  C 4.296875 5.203125 11.796875 -2.296875 26.59375 -2.296875  C 41.203125 -2.296875 50.59375 6.40625 50.59375 19.796875  C 50.59375 28.796875 47.09375 33.796875 38.59375 36.703125  C 45.203125 39.296875 48.5 44.296875 48.5 51.40625  C 48.5 63.59375 40.40625 70.90625 26.90625 70.90625  C 12.59375 70.90625 5 63.09375 4.703125 48  L 13.5 48  C 13.703125 55.703125 15.796875 63.203125 27 63.203125  " id="FreeSans-33"/>
      </defs>
      <g transform="translate(364.51525212 177.6992308)scale(0.12 -0.12)">
       <use xlink:href="#FreeSans-33"/>
       <use x="55.5999908447" xlink:href="#FreeSans-30"/>
       <use x="111.199981689" xlink:href="#FreeSans-30"/>
      </g>
     </g>
    </g>
   </g>
   <g id="matplotlib.axis_2">
    <g id="ytick_1">
     <g id="line2d_14">
      <defs>
       <path d="M 0 0  L 3 0  " id="m50080d4791" style="stroke:#000000;"/>
      </defs>
      <g>
       <use style="stroke:#000000;" x="57.78991512" xlink:href="#m50080d4791" y="164.9504808"/>
      </g>
     </g>
     <g id="line2d_15">
      <defs>
       <path d="M 0 0  L -3 0  " id="me07ff317da" style="stroke:#000000;"/>
      </defs>
      <g>
       <use style="stroke:#000000;" x="374.52212712" xlink:href="#me07ff317da" y="164.9504808"/>
      </g>
     </g>
     <g id="text_7">
      <!-- -90 -->
      <defs>
       <path d="M 28.703125 31.203125  L 4.59375 31.203125  L 4.59375 24  L 28.703125 24  z " id="FreeSans-2d"/>
       <path d="M 50.90625 36.296875  C 50.90625 56.5 44.59375 70.90625 27 70.90625  C 13.5 70.90625 3.796875 60.90625 3.796875 47  C 3.796875 33.796875 12.796875 24.5 25.59375 24.5  C 32.296875 24.5 37.203125 26.90625 41.796875 32.40625  C 41.703125 15.09375 36.09375 5.5 26 5.5  C 19.796875 5.5 15.5 9.40625 14.09375 16.203125  L 5.296875 16.203125  C 7 4.59375 14.59375 -2.296875 25.40625 -2.296875  C 35.796875 -2.296875 50.90625 3.5 50.90625 36.296875  M 26.90625 63.203125  C 35.09375 63.203125 41.296875 56.40625 41.296875 47.203125  C 41.296875 38.5 35.203125 32.296875 26.59375 32.296875  C 18.09375 32.296875 12.796875 38.203125 12.796875 47.703125  C 12.796875 56.703125 18.796875 63.203125 26.90625 63.203125  " id="FreeSans-39"/>
      </defs>
      <g transform="translate(36.45179012 168.0170433)scale(0.12 -0.12)">
       <use xlink:href="#FreeSans-2d"/>
       <use x="33.299987793" xlink:href="#FreeSans-39"/>
       <use x="88.8999786377" xlink:href="#FreeSans-30"/>
      </g>
     </g>
    </g>
    <g id="ytick_2">
     <g id="line2d_16">
      <g>
       <use style="stroke:#000000;" x="57.78991512" xlink:href="#m50080d4791" y="143.511270171"/>
      </g>
     </g>
     <g id="line2d_17">
      <g>
       <use style="stroke:#000000;" x="374.52212712" xlink:href="#me07ff317da" y="143.511270171"/>
      </g>
     </g>
     <g id="text_8">
      <!-- -85 -->
      <defs>
       <path d="M 39.09375 37.296875  C 46.40625 41.703125 48.796875 45.296875 48.796875 52  C 48.796875 63.09375 40.09375 70.90625 27.5 70.90625  C 15 70.90625 6.203125 63.09375 6.203125 52  C 6.203125 45.40625 8.59375 41.796875 15.796875 37.296875  C 7.703125 33.40625 3.703125 27.5 3.703125 19.703125  C 3.703125 6.703125 13.5 -2.296875 27.5 -2.296875  C 41.5 -2.296875 51.296875 6.703125 51.296875 19.59375  C 51.296875 27.5 47.296875 33.40625 39.09375 37.296875  M 27.5 63.09375  C 35 63.09375 39.796875 58.703125 39.796875 51.796875  C 39.796875 45.203125 34.90625 40.796875 27.5 40.796875  C 20.09375 40.796875 15.203125 45.203125 15.203125 51.90625  C 15.203125 58.703125 20.09375 63.09375 27.5 63.09375  M 27.5 33.40625  C 36.296875 33.40625 42.296875 27.796875 42.296875 19.5  C 42.296875 11.09375 36.296875 5.5 27.296875 5.5  C 18.703125 5.5 12.703125 11.203125 12.703125 19.5  C 12.703125 27.796875 18.703125 33.40625 27.5 33.40625  " id="FreeSans-38"/>
      </defs>
      <g transform="translate(36.45179012 146.577832671)scale(0.12 -0.12)">
       <use xlink:href="#FreeSans-2d"/>
       <use x="33.299987793" xlink:href="#FreeSans-38"/>
       <use x="88.8999786377" xlink:href="#FreeSans-35"/>
      </g>
     </g>
    </g>
    <g id="ytick_3">
     <g id="line2d_18">
      <g>
       <use style="stroke:#000000;" x="57.78991512" xlink:href="#m50080d4791" y="122.072059543"/>
      </g>
     </g>
     <g id="line2d_19">
      <g>
       <use style="stroke:#000000;" x="374.52212712" xlink:href="#me07ff317da" y="122.072059543"/>
      </g>
     </g>
     <g id="text_9">
      <!-- -80 -->
      <g transform="translate(36.45179012 125.138622043)scale(0.12 -0.12)">
       <use xlink:href="#FreeSans-2d"/>
       <use x="33.299987793" xlink:href="#FreeSans-38"/>
       <use x="88.8999786377" xlink:href="#FreeSans-30"/>
      </g>
     </g>
    </g>
    <g id="ytick_4">
     <g id="line2d_20">
      <g>
       <use style="stroke:#000000;" x="57.78991512" xlink:href="#m50080d4791" y="100.632848914"/>
      </g>
     </g>
     <g id="line2d_21">
      <g>
       <use style="stroke:#000000;" x="374.52212712" xlink:href="#me07ff317da" y="100.632848914"/>
      </g>
     </g>
     <g id="text_10">
      <!-- -75 -->
      <defs>
       <path d="M 52 70.90625  L 4.59375 70.90625  L 4.59375 62.203125  L 42.90625 62.203125  C 26 38.09375 19.09375 23.296875 13.796875 0  L 23.203125 0  C 27.09375 22.703125 36 42.203125 52 63.5  z " id="FreeSans-37"/>
      </defs>
      <g transform="translate(36.45179012 103.699411414)scale(0.12 -0.12)">
       <use xlink:href="#FreeSans-2d"/>
       <use x="33.299987793" xlink:href="#FreeSans-37"/>
       <use x="88.8999786377" xlink:href="#FreeSans-35"/>
      </g>
     </g>
    </g>
    <g id="ytick_5">
     <g id="line2d_22">
      <g>
       <use style="stroke:#000000;" x="57.78991512" xlink:href="#m50080d4791" y="79.1936382857"/>
      </g>
     </g>
     <g id="line2d_23">
      <g>
       <use style="stroke:#000000;" x="374.52212712" xlink:href="#me07ff317da" y="79.1936382857"/>
      </g>
     </g>
     <g id="text_11">
      <!-- -70 -->
      <g transform="translate(36.45179012 82.2602007857)scale(0.12 -0.12)">
       <use xlink:href="#FreeSans-2d"/>
       <use x="33.299987793" xlink:href="#FreeSans-37"/>
       <use x="88.8999786377" xlink:href="#FreeSans-30"/>
      </g>
     </g>
    </g>
    <g id="ytick_6">
     <g id="line2d_24">
      <g>
       <use style="stroke:#000000;" x="57.78991512" xlink:href="#m50080d4791" y="57.7544276571"/>
      </g>
     </g>
     <g id="line2d_25">
      <g>
       <use style="stroke:#000000;" x="374.52212712" xlink:href="#me07ff317da" y="57.7544276571"/>
      </g>
     </g>
     <g id="text_12">
      <!-- -65 -->
      <defs>
       <path d="M 4.296875 32.296875  C 4.296875 12.296875 10.40625 -2.296875 28.09375 -2.296875  C 41.59375 -2.296875 51.296875 7.703125 51.296875 21.59375  C 51.296875 34.796875 42.296875 44.09375 29.59375 44.09375  C 22.59375 44.09375 17.09375 41.40625 13.296875 36.203125  C 13.40625 53.5 19 63.09375 29.09375 63.09375  C 35.296875 63.09375 39.59375 59.203125 41 52.40625  L 49.796875 52.40625  C 48.09375 64 40.5 70.90625 29.703125 70.90625  C 19.296875 70.90625 4.296875 65.09375 4.296875 32.296875  M 28.5 36.296875  C 37 36.296875 42.296875 30.40625 42.296875 20.90625  C 42.296875 12 36.296875 5.5 28.203125 5.5  C 20 5.5 13.796875 12.296875 13.796875 21.40625  C 13.796875 30.203125 19.796875 36.296875 28.5 36.296875  " id="FreeSans-36"/>
      </defs>
      <g transform="translate(36.45179012 60.8209901571)scale(0.12 -0.12)">
       <use xlink:href="#FreeSans-2d"/>
       <use x="33.299987793" xlink:href="#FreeSans-36"/>
       <use x="88.8999786377" xlink:href="#FreeSans-35"/>
      </g>
     </g>
    </g>
    <g id="ytick_7">
     <g id="line2d_26">
      <g>
       <use style="stroke:#000000;" x="57.78991512" xlink:href="#m50080d4791" y="36.3152170286"/>
      </g>
     </g>
     <g id="line2d_27">
      <g>
       <use style="stroke:#000000;" x="374.52212712" xlink:href="#me07ff317da" y="36.3152170286"/>
      </g>
     </g>
     <g id="text_13">
      <!-- -60 -->
      <g transform="translate(36.45179012 39.3817795286)scale(0.12 -0.12)">
       <use xlink:href="#FreeSans-2d"/>
       <use x="33.299987793" xlink:href="#FreeSans-36"/>
       <use x="88.8999786377" xlink:href="#FreeSans-30"/>
      </g>
     </g>
    </g>
    <g id="ytick_8">
     <g id="line2d_28">
      <g>
       <use style="stroke:#000000;" x="57.78991512" xlink:href="#m50080d4791" y="14.8760064"/>
      </g>
     </g>
     <g id="line2d_29">
      <g>
       <use style="stroke:#000000;" x="374.52212712" xlink:href="#me07ff317da" y="14.8760064"/>
      </g>
     </g>
     <g id="text_14">
      <!-- -55 -->
      <g transform="translate(36.45179012 17.9425689)scale(0.12 -0.12)">
       <use xlink:href="#FreeSans-2d"/>
       <use x="33.299987793" xlink:href="#FreeSans-35"/>
       <use x="88.8999786377" xlink:href="#FreeSans-35"/>
      </g>
     </g>
    </g>
   </g>
  </g>
 </g>
 <defs>
  <clipPath id="p8f0f8714bf">
   <rect height="150.0744744" width="316.732212" x="57.78991512" y="14.8760064"/>
  </clipPath>
 </defs>
</g>
  <g id="layer3" inkscape:groupmode="layer" inkscape:label="Labels" style="display:inline" transform="translate(0,-500.00001)">
    <text id="text4155" sodipodi:linespacing="125%" style="font-style:normal;font-weight:normal;font-size:44.44444275px;line-height:125%;font-family:sans-serif;letter-spacing:0px;word-spacing:0px;fill:#000000;fill-opacity:1;stroke:none;stroke-width:1px;stroke-linecap:butt;stroke-linejoin:miter;stroke-opacity:1" x="140.02818" xml:space="preserve" y="773.50824"><tspan id="tspan4157" sodipodi:role="line" style="font-size:25px;fill:#7c7c7c;fill-opacity:1" x="140.02818" y="773.50824">Constructed by FigureFirst</tspan></text>
  </g>
</svg>