<?xml version="1.0" encoding="UTF-8" standalone="no"?>
<!-- Created with Inkscape (http://www.inkscape.org/) -->

<!-- user space defined by view box is in points (72dpi) -->

<svg
   xmlns:figurefirst="http://flyranch.github.io/figurefirst/"
   xmlns:dc="http://purl.org/dc/elements/1.1/"
   xmlns:cc="http://creativecommons.org/ns#"
   xmlns:rdf="http://www.w3.org/1999/02/22-rdf-syntax-ns#"
   xmlns:svg="http://www.w3.org/2000/svg"
   xmlns="http://www.w3.org/2000/svg"
   xmlns:sodipodi="http://sodipodi.sourceforge.net/DTD/sodipodi-0.dtd"
   xmlns:inkscape="http://www.inkscape.org/namespaces/inkscape"
   width="7.5in"
   height="8.75in"
   viewBox="0 0 540 630.0"
   id="svg2"
   version="1.1"
   inkscape:version="0.91 r"
   sodipodi:docname="pathspec_layout.svg">
  <sodipodi:namedview
     id="base"
     pagecolor="#ffffff"
     bordercolor="#666666"
     borderopacity="1.0"
     inkscape:pageopacity="0.0"
     inkscape:pageshadow="2"
     inkscape:zoom="0.67083334"
     inkscape:cx="239.46173"
     inkscape:cy="661.09372"
     inkscape:document-units="in"
     inkscape:current-layer="layer1"
     showgrid="false"
     units="in"
     inkscape:window-width="1757"
     inkscape:window-height="988"
     inkscape:window-x="90"
     inkscape:window-y="117"
     inkscape:window-maximized="0"
     showguides="false" />
  <defs
     id="defs4" />
  <metadata
     id="metadata7">
    <rdf:RDF>
      <cc:Work
         rdf:about="">
        <dc:format>image/svg+xml</dc:format>
        <dc:type
           rdf:resource="http://purl.org/dc/dcmitype/StillImage" />
        <dc:title />
      </cc:Work>
    </rdf:RDF>
  </metadata>
  <g
     inkscape:label="Layer 1"
     inkscape:groupmode="layer"
     id="layer1"
     transform="translate(0,-264.86212)">
    <g
       id="g4301"
       transform="translate(0,-22.4)">
      <rect
         y="294.50912"
         x="10.383621"
         height="53.591293"
         width="157.09337"
         id="rect4133"
         style="color:#000000;clip-rule:nonzero;display:inline;overflow:visible;visibility:visible;opacity:1;isolation:auto;mix-blend-mode:normal;color-interpolation:sRGB;color-interpolation-filters:linearRGB;solid-color:#000000;solid-opacity:1;fill:#cccccc;fill-opacity:1;fill-rule:nonzero;stroke:#000000;stroke-width:0.5558188;stroke-linecap:butt;stroke-linejoin:round;stroke-miterlimit:100;stroke-dasharray:none;stroke-dashoffset:0;stroke-opacity:1;color-rendering:auto;image-rendering:auto;shape-rendering:auto;text-rendering:auto;enable-background:accumulate">
        <figurefirst:axis
           figurefirst:name="cond_1" />
      </rect>
      <rect
         y="351.09021"
         x="10.383621"
         height="53.591293"
         width="157.09337"
         id="rect4133-9"
         style="color:#000000;clip-rule:nonzero;display:inline;overflow:visible;visibility:visible;opacity:1;isolation:auto;mix-blend-mode:normal;color-interpolation:sRGB;color-interpolation-filters:linearRGB;solid-color:#000000;solid-opacity:1;fill:#cccccc;fill-opacity:1;fill-rule:nonzero;stroke:#000000;stroke-width:0.5558188;stroke-linecap:butt;stroke-linejoin:round;stroke-miterlimit:100;stroke-dasharray:none;stroke-dashoffset:0;stroke-opacity:1;color-rendering:auto;image-rendering:auto;shape-rendering:auto;text-rendering:auto;enable-background:accumulate">
        <figurefirst:axis
           figurefirst:name="cond_2" />
      </rect>
      <rect
         y="407.67136"
         x="10.383621"
         height="53.591293"
         width="157.09337"
         id="rect4133-7"
         style="color:#000000;clip-rule:nonzero;display:inline;overflow:visible;visibility:visible;opacity:1;isolation:auto;mix-blend-mode:normal;color-interpolation:sRGB;color-interpolation-filters:linearRGB;solid-color:#000000;solid-opacity:1;fill:#cccccc;fill-opacity:1;fill-rule:nonzero;stroke:#000000;stroke-width:0.5558188;stroke-linecap:butt;stroke-linejoin:round;stroke-miterlimit:100;stroke-dasharray:none;stroke-dashoffset:0;stroke-opacity:1;color-rendering:auto;image-rendering:auto;shape-rendering:auto;text-rendering:auto;enable-background:accumulate">
        <figurefirst:axis
           figurefirst:name="cond_3" />
      </rect>
      <rect
         y="464.25247"
         x="10.383621"
         height="53.591293"
         width="157.09337"
         id="rect4133-5"
         style="color:#000000;clip-rule:nonzero;display:inline;overflow:visible;visibility:visible;opacity:1;isolation:auto;mix-blend-mode:normal;color-interpolation:sRGB;color-interpolation-filters:linearRGB;solid-color:#000000;solid-opacity:1;fill:#cccccc;fill-opacity:1;fill-rule:nonzero;stroke:#000000;stroke-width:0.5558188;stroke-linecap:butt;stroke-linejoin:round;stroke-miterlimit:100;stroke-dasharray:none;stroke-dashoffset:0;stroke-opacity:1;color-rendering:auto;image-rendering:auto;shape-rendering:auto;text-rendering:auto;enable-background:accumulate">
        <figurefirst:axis
           figurefirst:name="cond_4" />
      </rect>
      <figurefirst:group
         figurefirst:name="groupA" />
    </g>
    <g
       id="g4307"
       transform="translate(0,-22.4)">
      <rect
         y="294.50912"
         x="172.8819"
         height="53.591293"
         width="157.09337"
         id="rect4133-4"
         style="color:#000000;clip-rule:nonzero;display:inline;overflow:visible;visibility:visible;opacity:1;isolation:auto;mix-blend-mode:normal;color-interpolation:sRGB;color-interpolation-filters:linearRGB;solid-color:#000000;solid-opacity:1;fill:#cccccc;fill-opacity:1;fill-rule:nonzero;stroke:#000000;stroke-width:0.5558188;stroke-linecap:butt;stroke-linejoin:round;stroke-miterlimit:100;stroke-dasharray:none;stroke-dashoffset:0;stroke-opacity:1;color-rendering:auto;image-rendering:auto;shape-rendering:auto;text-rendering:auto;enable-background:accumulate">
        <figurefirst:axis
           figurefirst:name="cond_1" />
      </rect>
      <rect
         y="351.09021"
         x="172.8819"
         height="53.591293"
         width="157.09337"
         id="rect4133-9-4"
         style="color:#000000;clip-rule:nonzero;display:inline;overflow:visible;visibility:visible;opacity:1;isolation:auto;mix-blend-mode:normal;color-interpolation:sRGB;color-interpolation-filters:linearRGB;solid-color:#000000;solid-opacity:1;fill:#cccccc;fill-opacity:1;fill-rule:nonzero;stroke:#000000;stroke-width:0.5558188;stroke-linecap:butt;stroke-linejoin:round;stroke-miterlimit:100;stroke-dasharray:none;stroke-dashoffset:0;stroke-opacity:1;color-rendering:auto;image-rendering:auto;shape-rendering:auto;text-rendering:auto;enable-background:accumulate">
        <figurefirst:axis
           figurefirst:name="cond_2" />
      </rect>
      <rect
         y="407.67136"
         x="172.8819"
         height="53.591293"
         width="157.09337"
         id="rect4133-7-5"
         style="color:#000000;clip-rule:nonzero;display:inline;overflow:visible;visibility:visible;opacity:1;isolation:auto;mix-blend-mode:normal;color-interpolation:sRGB;color-interpolation-filters:linearRGB;solid-color:#000000;solid-opacity:1;fill:#cccccc;fill-opacity:1;fill-rule:nonzero;stroke:#000000;stroke-width:0.5558188;stroke-linecap:butt;stroke-linejoin:round;stroke-miterlimit:100;stroke-dasharray:none;stroke-dashoffset:0;stroke-opacity:1;color-rendering:auto;image-rendering:auto;shape-rendering:auto;text-rendering:auto;enable-background:accumulate">
        <figurefirst:axis
           figurefirst:name="cond_3" />
      </rect>
      <rect
         y="464.25247"
         x="172.8819"
         height="53.591293"
         width="157.09337"
         id="rect4133-5-5"
         style="color:#000000;clip-rule:nonzero;display:inline;overflow:visible;visibility:visible;opacity:1;isolation:auto;mix-blend-mode:normal;color-interpolation:sRGB;color-interpolation-filters:linearRGB;solid-color:#000000;solid-opacity:1;fill:#cccccc;fill-opacity:1;fill-rule:nonzero;stroke:#000000;stroke-width:0.5558188;stroke-linecap:butt;stroke-linejoin:round;stroke-miterlimit:100;stroke-dasharray:none;stroke-dashoffset:0;stroke-opacity:1;color-rendering:auto;image-rendering:auto;shape-rendering:auto;text-rendering:auto;enable-background:accumulate">
        <figurefirst:axis
           figurefirst:name="cond_4" />
      </rect>
      <figurefirst:group
         figurefirst:name="groupB" />
    </g>
    <g
       id="g4313"
       transform="translate(0,-22.4)">
      <rect
         y="294.50912"
         x="360.98022"
         height="53.591293"
         width="157.09337"
         id="rect4133-57"
         style="color:#000000;clip-rule:nonzero;display:inline;overflow:visible;visibility:visible;opacity:1;isolation:auto;mix-blend-mode:normal;color-interpolation:sRGB;color-interpolation-filters:linearRGB;solid-color:#000000;solid-opacity:1;fill:#cccccc;fill-opacity:1;fill-rule:nonzero;stroke:#000000;stroke-width:0.5558188;stroke-linecap:butt;stroke-linejoin:round;stroke-miterlimit:100;stroke-dasharray:none;stroke-dashoffset:0;stroke-opacity:1;color-rendering:auto;image-rendering:auto;shape-rendering:auto;text-rendering:auto;enable-background:accumulate">
        <figurefirst:axis
           figurefirst:name="cond_1" />
      </rect>
      <rect
         y="351.09021"
         x="360.98022"
         height="53.591293"
         width="157.09337"
         id="rect4133-9-9"
         style="color:#000000;clip-rule:nonzero;display:inline;overflow:visible;visibility:visible;opacity:1;isolation:auto;mix-blend-mode:normal;color-interpolation:sRGB;color-interpolation-filters:linearRGB;solid-color:#000000;solid-opacity:1;fill:#cccccc;fill-opacity:1;fill-rule:nonzero;stroke:#000000;stroke-width:0.5558188;stroke-linecap:butt;stroke-linejoin:round;stroke-miterlimit:100;stroke-dasharray:none;stroke-dashoffset:0;stroke-opacity:1;color-rendering:auto;image-rendering:auto;shape-rendering:auto;text-rendering:auto;enable-background:accumulate">
        <figurefirst:axis
           figurefirst:name="cond_2" />
      </rect>
      <rect
         y="407.67136"
         x="360.98022"
         height="53.591293"
         width="157.09337"
         id="rect4133-7-59"
         style="color:#000000;clip-rule:nonzero;display:inline;overflow:visible;visibility:visible;opacity:1;isolation:auto;mix-blend-mode:normal;color-interpolation:sRGB;color-interpolation-filters:linearRGB;solid-color:#000000;solid-opacity:1;fill:#cccccc;fill-opacity:1;fill-rule:nonzero;stroke:#000000;stroke-width:0.5558188;stroke-linecap:butt;stroke-linejoin:round;stroke-miterlimit:100;stroke-dasharray:none;stroke-dashoffset:0;stroke-opacity:1;color-rendering:auto;image-rendering:auto;shape-rendering:auto;text-rendering:auto;enable-background:accumulate">
        <figurefirst:axis
           figurefirst:name="cond_3" />
      </rect>
      <rect
         y="464.25247"
         x="360.98022"
         height="53.591293"
         width="157.09337"
         id="rect4133-5-51"
         style="color:#000000;clip-rule:nonzero;display:inline;overflow:visible;visibility:visible;opacity:1;isolation:auto;mix-blend-mode:normal;color-interpolation:sRGB;color-interpolation-filters:linearRGB;solid-color:#000000;solid-opacity:1;fill:#cccccc;fill-opacity:1;fill-rule:nonzero;stroke:#000000;stroke-width:0.5558188;stroke-linecap:butt;stroke-linejoin:round;stroke-miterlimit:100;stroke-dasharray:none;stroke-dashoffset:0;stroke-opacity:1;color-rendering:auto;image-rendering:auto;shape-rendering:auto;text-rendering:auto;enable-background:accumulate">
        <figurefirst:axis
           figurefirst:name="cond_4" />
      </rect>
      <figurefirst:group
         figurefirst:name="summary" />
    </g>
    <path
       style="fill:none;fill-rule:evenodd;stroke:#2dad38;stroke-width:0.36000001;stroke-linecap:butt;stroke-linejoin:miter;stroke-miterlimit:4;stroke-dasharray:none;stroke-opacity:0.50574712"
       d="M 21.714286,253.71927 C 22.47619,251.8145 23.082545,249.83989 24,248.00498 c 0.240935,-0.48187 0.761905,-0.7619 1.142857,-1.14286 0,-0.7619 -0.184789,-1.54655 0,-2.28571 0.277577,-1.11031 1.24015,-2.73153 2.285714,-3.42857 0.708771,-0.47252 1.683376,-0.54052 2.285715,-1.14286 0.269373,-0.26937 -0.170368,-1.48359 0,-1.14286 0.538748,1.0775 0.604108,2.35108 1.142856,3.42858 0.240936,0.48187 0.901923,0.66098 1.142858,1.14285 0.538748,1.0775 0.695451,2.31006 1.142857,3.42857 0.316364,0.79091 0.761905,1.52381 1.142857,2.28572 0.380952,0.7619 0.670344,1.57694 1.142857,2.28571 1.750375,2.62556 0.652798,-0.49006 3.428571,2.28572 0.269375,0.26937 -0.170367,0.80212 0,1.14285 0.609524,1.21905 2.120262,1.79702 3.428572,1.14286 2.79933,-1.39966 1.873985,-2.49865 3.428572,-4.57143 0.646497,-0.86199 1.639216,-1.42371 2.285714,-2.28571 0.511101,-0.68147 0.631756,-1.60425 1.142857,-2.28572 0.646497,-0.86199 1.639217,-1.42371 2.285714,-2.28571 0.943539,-1.25805 1.818573,-5.17762 3.428571,-5.71429 0.722807,-0.24093 1.604247,-0.34073 2.285715,0 0.301637,0.15082 -0.227551,1.60306 0,2.28572 2.759397,8.27819 -0.32949,-1.80184 2.285714,3.42857 0.170367,0.34073 -0.170367,0.80212 0,1.14286 0.675603,1.3512 2.026811,1.61011 3.428571,1.14285 0.511102,-0.17036 0.694592,-0.84401 1.142858,-1.14285 2.920217,-1.94681 2.099834,-0.13312 4.571428,-3.42857 0.511102,-0.68147 0.540518,-1.68338 1.142858,-2.28572 0.07323,-0.0732 4.358546,-2.14379 4.571428,-2.28571 0.448265,-0.29885 0.660986,-1.3838 1.142857,-1.14286 2.973512,1.48676 0.400354,1.94356 1.142857,3.42857 0.240935,0.48187 0.901922,0.66099 1.142858,1.14286 0.170366,0.34073 -0.269375,0.87348 0,1.14286 0.269373,0.26937 0.761904,0 1.142856,0 3.188111,0 1.637748,-1.63775 3.428572,-3.42858 0.269374,-0.26937 0.802123,0.17037 1.142857,0 0.481871,-0.24093 0.660987,-0.90192 1.142857,-1.14285 1.512333,-0.75617 2.47279,1.64852 3.428571,2.28571 2.225385,1.48359 2.097361,1.14286 4.571433,1.14286 0.380952,0 0.781448,0.12047 1.142856,0 2.437088,-0.81237 2.710944,-1.56809 4.571424,-3.42857 0.380952,-0.38096 0.844016,-0.69459 1.142856,-1.14286 0.47252,-0.70877 0.670342,-1.57694 1.142862,-2.28571 0.29884,-0.44827 0.90192,-0.66099 1.14286,-1.14286 0.17037,-0.34074 -0.38095,-1.14286 0,-1.14286 1.94715,0 0.76377,2.67603 1.14285,4.57143 0.16706,0.83529 0.82649,1.4948 1.14286,2.28571 0.44741,1.11852 0.69545,2.31006 1.14286,3.42858 0.63272,1.58181 1.5238,3.04761 2.28571,4.57142 1.09027,2.18054 1.62059,4.16629 4.57143,3.42858 1.11031,-0.27758 2.73153,-1.24016 3.42857,-2.28572 0.47252,-0.70877 0.67034,-1.57694 1.14285,-2.28571 0.69845,-1.04767 1.58728,-1.23805 2.28572,-2.28572 0.47252,-0.70877 0.43409,-1.8132 1.14286,-2.28571 1.48817,-0.99212 3.4483,0.76848 4.57142,1.14286 0.36141,0.12046 0.76192,0 1.14287,0 0.7619,0 1.5629,0.24093 2.28571,0 0.5111,-0.17037 0.66098,-0.90193 1.14286,-1.14286 0.34073,-0.17037 0.80212,0.17036 1.14285,0 0.92927,-0.46464 0.94562,-1.81291 2.28571,-1.14286 0.48188,0.24094 0.76192,0.76191 1.14287,1.14286 2.07816,2.07816 3.9581,4.74794 6.85713,5.71428 0.72281,0.24094 1.52382,0 2.28572,0 0.76191,0 1.60424,0.34074 2.28572,0 0.34073,-0.17036 -0.38096,-1.14285 0,-1.14285 5.77349,0 0.87831,0.87831 2.28571,2.28571 0.26937,0.26938 0.80213,-0.17037 1.14285,0 0.48188,0.24094 0.63176,0.97249 1.14287,1.14286 0.7228,0.24093 1.52381,0 2.28571,0 0.38095,0 0.80212,0.17036 1.14286,0 0.48187,-0.24094 0.66098,-0.90192 1.14285,-1.14286 0.34074,-0.17037 0.76191,0 1.14286,0 0.38095,0 0.7619,0 1.14285,0 0.38096,0 0.76192,0 1.14287,0 0.38095,0 1.14285,-0.38095 1.14285,0 0,0.38095 -0.7619,0 -1.14285,0"
       id="path4323"
       inkscape:connector-curvature="0">
      <figurefirst:linespec
         figurefirst:name="trial_A" />
    </path>
    <path
       style="fill:none;fill-rule:evenodd;stroke:#0ea21b;stroke-width:1.44000006;stroke-linecap:butt;stroke-linejoin:miter;stroke-miterlimit:4;stroke-dasharray:none;stroke-opacity:0.68678158"
       d="M 13.028571,254.86212 C 41.6,244.57641 10.742857,249.14784 50.742857,244.57641 c 39.999999,-4.57143 77.714283,-1.14286 86.857143,0 9.14286,1.14286 26.28571,3.42857 26.28571,3.42857"
       id="path4325"
       inkscape:connector-curvature="0">
      <figurefirst:linespec
         figurefirst:name="mean_A" />
    </path>
    <path
       style="fill:none;fill-rule:evenodd;stroke:#885e03;stroke-width:0.36000001;stroke-linecap:butt;stroke-linejoin:miter;stroke-miterlimit:4;stroke-dasharray:none;stroke-opacity:0.68627451"
       d="m 185.33324,253.50875 c 0.7619,-1.90477 1.36826,-3.87938 2.28572,-5.71429 0.24093,-0.48187 0.7619,-0.7619 1.14285,-1.14286 0,-0.7619 -0.18479,-1.54655 0,-2.28571 0.27758,-1.11031 1.24015,-2.73153 2.28572,-3.42857 0.70877,-0.47252 1.68337,-0.54052 2.28571,-1.14286 0.26937,-0.26937 -0.17037,-1.48359 0,-1.14286 0.53875,1.0775 0.60411,2.35108 1.14286,3.42858 0.24093,0.48187 0.90192,0.66098 1.14286,1.14285 0.53874,1.0775 0.69545,2.31006 1.14285,3.42857 0.31637,0.79091 0.76191,1.52381 1.14286,2.28572 0.38095,0.7619 0.67034,1.57694 1.14286,2.28571 1.75037,2.62556 0.65279,-0.49006 3.42857,2.28572 0.26937,0.26937 -0.17037,0.80212 0,1.14285 0.60952,1.21905 2.12026,1.79702 3.42857,1.14286 2.79933,-1.39966 1.87398,-2.49865 3.42857,-4.57143 0.6465,-0.86199 1.63922,-1.42371 2.28572,-2.28571 0.5111,-0.68147 0.63175,-1.60425 1.14285,-2.28572 0.6465,-0.86199 1.63922,-1.42371 2.28572,-2.28571 0.94353,-1.25805 1.81857,-5.17762 3.42857,-5.71429 0.7228,-0.24093 1.60424,-0.34073 2.28571,0 0.30164,0.15082 -0.22755,1.60306 0,2.28572 2.7594,8.27819 -0.32949,-1.80184 2.28572,3.42857 0.17036,0.34073 -0.17037,0.80212 0,1.14286 0.6756,1.3512 2.02681,1.61011 3.42857,1.14285 0.5111,-0.17036 0.69459,-0.84401 1.14286,-1.14285 2.92021,-1.94681 2.09983,-0.13312 4.57143,-3.42857 0.5111,-0.68147 0.54051,-1.68338 1.14285,-2.28572 0.0732,-0.0732 4.35855,-2.14379 4.57143,-2.28571 0.44827,-0.29885 0.66099,-1.3838 1.14286,-1.14286 2.97351,1.48676 0.40035,1.94356 1.14286,3.42857 0.24093,0.48187 0.90192,0.66099 1.14285,1.14286 0.17037,0.34073 -0.26937,0.87348 0,1.14286 0.26938,0.26937 0.76191,0 1.14286,0 3.18811,0 1.63775,-1.63775 3.42857,-3.42858 0.26938,-0.26937 0.80212,0.17037 1.14286,0 0.48187,-0.24093 0.66098,-0.90192 1.14286,-1.14285 1.51233,-0.75617 2.47278,1.64852 3.42857,2.28571 2.22538,1.48359 2.09736,1.14286 4.57143,1.14286 0.38095,0 0.78145,0.12047 1.14286,0 2.43709,-0.81237 2.71094,-1.56809 4.57142,-3.42857 0.38095,-0.38096 0.84402,-0.69459 1.14286,-1.14286 0.47252,-0.70877 0.67033,-1.57694 1.14285,-2.28571 0.29884,-0.44827 0.90192,-0.66099 1.14287,-1.14286 0.17037,-0.34074 -0.38095,-1.14286 0,-1.14286 1.94715,0 0.76377,2.67603 1.14285,4.57143 0.16706,0.83529 0.82648,1.4948 1.14286,2.28571 0.44741,1.11852 0.69545,2.31006 1.14286,3.42858 0.63272,1.58181 1.5238,3.04761 2.28571,4.57142 1.09027,2.18054 1.62059,4.16629 4.57143,3.42858 1.1103,-0.27758 2.73153,-1.24016 3.42857,-2.28572 0.47252,-0.70877 0.67033,-1.57694 1.14285,-2.28571 0.69844,-1.04767 1.58728,-1.23805 2.28572,-2.28572 0.47252,-0.70877 0.43408,-1.8132 1.14286,-2.28571 1.48817,-0.99212 3.4483,0.76848 4.57142,1.14286 0.3614,0.12046 0.76192,0 1.14287,0 0.76189,0 1.56289,0.24093 2.28571,0 0.5111,-0.17037 0.66098,-0.90193 1.14286,-1.14286 0.34072,-0.17037 0.80212,0.17036 1.14284,0 0.92928,-0.46464 0.94563,-1.81291 2.28572,-1.14286 0.48188,0.24094 0.76192,0.76191 1.14287,1.14286 2.07816,2.07816 3.95809,4.74794 6.85713,5.71428 0.7228,0.24094 1.52382,0 2.28572,0 0.76191,0 1.60424,0.34074 2.28572,0 0.34072,-0.17036 -0.38096,-1.14285 0,-1.14285 5.77348,0 0.87831,0.87831 2.28571,2.28571 0.26937,0.26938 0.80213,-0.17037 1.14285,0 0.48188,0.24094 0.63176,0.97249 1.14287,1.14286 0.7228,0.24093 1.52381,0 2.28571,0 0.38094,0 0.80212,0.17036 1.14286,0 0.48187,-0.24094 0.66098,-0.90192 1.14284,-1.14286 0.34075,-0.17037 0.76192,0 1.14287,0 0.38095,0 0.76189,0 1.14285,0 0.38096,0 0.76192,0 1.14287,0 0.38095,0 1.14285,-0.38095 1.14285,0 0,0.38095 -0.7619,0 -1.14285,0"
       id="path4323-1"
       inkscape:connector-curvature="0">
      <figurefirst:linespec
         figurefirst:name="trial_B" />
    </path>
    <path
       style="fill:none;fill-rule:evenodd;stroke:#885e03;stroke-width:1.44000006;stroke-linecap:butt;stroke-linejoin:miter;stroke-miterlimit:4;stroke-dasharray:none;stroke-opacity:0.68678158"
       d="m 175.04753,254.6516 c 28.57143,-10.28571 -2.28572,-5.71428 37.71428,-10.28571 40,-4.57143 77.71429,-1.14286 86.85715,0 9.14286,1.14286 26.2857,3.42857 26.2857,3.42857"
       id="path4325-4"
       inkscape:connector-curvature="0">
      <figurefirst:linespec
         figurefirst:name="mean_B" />
    </path>
    <path
       style="opacity:0.98999999;fill:#885e03;fill-opacity:0.68627451;fill-rule:evenodd;stroke:#000000;stroke-width:0.792;stroke-linecap:butt;stroke-linejoin:miter;stroke-miterlimit:4;stroke-dasharray:none;stroke-opacity:1"
       d="m 363.44409,260.99182 c 16.02191,-0.84326 22.27619,-17.89414 31.20054,-38.78985 8.92435,-20.89571 35.2307,-16.90013 42.1629,-1.68652 10.96235,26.14099 16.02189,37.10334 32.88705,37.9466"
       id="path4371"
       inkscape:connector-curvature="0"
       sodipodi:nodetypes="czcc">
      <figurefirst:patchspec
         figurefirst:name="histB" />
    </path>
    <path
       style="fill:#0ea21b;fill-opacity:0.68627451;fill-rule:evenodd;stroke:#000000;stroke-width:0.55703616;stroke-linecap:butt;stroke-linejoin:miter;stroke-opacity:1"
       d="m 402.84119,260.16175 c 26.63268,-1.04543 30.33166,-35.54452 44.38779,-48.08963 14.05614,-12.54513 25.10428,-9.25902 35.51023,8.36342 13.60672,23.04291 33.29087,37.63536 33.29087,37.63536"
       id="path4373"
       inkscape:connector-curvature="0"
       sodipodi:nodetypes="cssc">
      <figurefirst:patchspec
         figurefirst:name="histA" />
    </path>
  </g>
  <g
     inkscape:groupmode="layer"
     id="layer2"
     inkscape:label="mpl_target"
     style="display:inline">
    <figurefirst:targetlayer
       figurefirst:name="mpl_target" />
  </g>
</svg>
